<?xml version="1.0" encoding="utf-8"?>
<!-- Generator: Adobe Illustrator 21.0.0, SVG Export Plug-In . SVG Version: 6.00 Build 0)  -->
<svg version="1.1" id="Layer_1" xmlns="http://www.w3.org/2000/svg" xmlns:xlink="http://www.w3.org/1999/xlink" x="0px" y="0px"
	 viewBox="0 0 327.1 312.8" style="enable-background:new 0 0 327.1 312.8;" xml:space="preserve">
<style type="text/css">
	.st0{fill:#42E8E0;}
	.st1{opacity:0.3;fill:#0B0244;}
	.st2{fill:#312A91;}
	.st3{opacity:0.9;}
	.st4{fill:url(#SVGID_1_);}
	.st5{fill:url(#SVGID_2_);}
	.st6{fill:url(#SVGID_3_);}
	.st7{opacity:0.7;fill:url(#SVGID_4_);}
	.st8{fill:url(#SVGID_5_);}
	.st9{opacity:0.7;fill:url(#SVGID_6_);}
	.st10{opacity:0.3;fill:#42E8E0;}
	.st11{opacity:0.5;fill:#5CFFF3;}
	.st12{opacity:0.7;fill:url(#SVGID_7_);}
	.st13{fill:url(#SVGID_8_);}
	.st14{opacity:0.7;fill:url(#SVGID_9_);}
	.st15{fill:url(#SVGID_10_);}
	.st16{opacity:0.7;fill:url(#SVGID_11_);}
	.st17{fill:url(#SVGID_12_);}
	.st18{opacity:0.7;fill:url(#SVGID_13_);}
	.st19{fill:url(#SVGID_14_);}
	.st20{fill:#73FFF5;}
	.st21{opacity:0.4;}
	.st22{fill:#7979D3;}
	.st23{opacity:0.5;fill:#42E8E0;}
	.st24{opacity:0.1;}
	.st25{fill:#0B0244;}
	.st26{fill:url(#SVGID_15_);}
	.st27{fill:url(#SVGID_16_);}
	.st28{fill:url(#SVGID_17_);}
	.st29{opacity:0.7;fill:url(#SVGID_18_);}
	.st30{fill:url(#SVGID_19_);}
	.st31{opacity:0.7;fill:url(#SVGID_20_);}
	.st32{opacity:0.7;fill:url(#SVGID_21_);}
	.st33{fill:url(#SVGID_22_);}
	.st34{opacity:0.7;fill:url(#SVGID_23_);}
	.st35{fill:url(#SVGID_24_);}
	.st36{opacity:0.7;fill:url(#SVGID_25_);}
	.st37{fill:url(#SVGID_26_);}
	.st38{opacity:0.7;fill:url(#SVGID_27_);}
	.st39{fill:url(#SVGID_28_);}
	.st40{fill:#88FFF3;}
	.st41{opacity:0.5;fill:#88FFF3;}
	.st42{fill:url(#SVGID_29_);}
	.st43{fill:url(#SVGID_30_);}
	.st44{fill:url(#SVGID_31_);}
	.st45{opacity:0.7;fill:url(#SVGID_32_);}
	.st46{fill:url(#SVGID_33_);}
	.st47{opacity:0.7;fill:url(#SVGID_34_);}
	.st48{opacity:0.7;fill:url(#SVGID_35_);}
	.st49{fill:url(#SVGID_36_);}
	.st50{opacity:0.7;fill:url(#SVGID_37_);}
	.st51{fill:url(#SVGID_38_);}
	.st52{opacity:0.7;fill:url(#SVGID_39_);}
	.st53{fill:url(#SVGID_40_);}
	.st54{opacity:0.7;fill:url(#SVGID_41_);}
	.st55{fill:url(#SVGID_42_);}
	.st56{fill:#FCCC6B;}
	.st57{fill:url(#SVGID_43_);}
	.st58{opacity:0.7;fill:url(#SVGID_44_);}
	.st59{opacity:0.7;fill:url(#SVGID_45_);}
	.st60{opacity:0.5;fill:url(#SVGID_46_);}
	.st61{fill:url(#SVGID_47_);}
	.st62{opacity:0.5;fill:url(#SVGID_48_);}
	.st63{fill:#5CFFF3;}
	.st64{opacity:0.5;fill:url(#SVGID_49_);}
	.st65{opacity:0.5;fill:url(#SVGID_50_);}
	.st66{fill:url(#SVGID_51_);}
	.st67{opacity:0.5;fill:url(#SVGID_52_);}
	.st68{fill:url(#SVGID_53_);}
	.st69{opacity:0.5;fill:url(#SVGID_54_);}
	.st70{opacity:0.5;fill:url(#SVGID_55_);}
	.st71{opacity:0.5;fill:url(#SVGID_56_);}
	.st72{fill:url(#SVGID_57_);}
</style>
<g>
	<g>
		<path class="st0" d="M74.2,113.3c-0.4,0-0.7-0.2-0.9-0.5c-0.3-0.5-0.1-1.1,0.4-1.4l88.4-51c0.5-0.3,1.1-0.1,1.4,0.4
			c0.3,0.5,0.1,1.1-0.4,1.4l-88.4,51C74.5,113.2,74.3,113.3,74.2,113.3z"/>
		<path class="st0" d="M247.5,111.3c-0.2,0-0.4,0-0.5-0.1l-84.9-49c-0.5-0.3-0.7-0.9-0.4-1.4c0.3-0.5,0.9-0.7,1.4-0.4l84.9,49
			c0.5,0.3,0.7,0.9,0.4,1.4C248.2,111.1,247.9,111.3,247.5,111.3z"/>
	</g>
	<polygon class="st1" points="48.7,218.9 7.4,195 48.7,171.2 90,195 	"/>
	<polygon class="st1" points="278.9,218.9 237.5,195 278.9,171.2 320.2,195 	"/>
	<polygon class="st1" points="162.6,290.4 121.2,266.5 162.6,242.7 203.9,266.5 	"/>
	<g>
		<g>
			<g>
				<g>
					<g>
						<g>
							<polygon class="st2" points="48.7,189.2 0,161.1 48.7,132.9 97.4,161.1 							"/>
							<polygon class="st2" points="48.7,181.1 0,153 48.7,124.9 97.4,153 							"/>
							<g class="st3">
								<linearGradient id="SVGID_1_" gradientUnits="userSpaceOnUse" x1="144.519" y1="129.1361" x2="4.433" y2="100.323">
									<stop  offset="0" style="stop-color:#180D5B"/>
									<stop  offset="9.497968e-02" style="stop-color:#1A1660"/>
									<stop  offset="0.2466" style="stop-color:#1E2D6E"/>
									<stop  offset="0.436" style="stop-color:#255385"/>
									<stop  offset="0.6555" style="stop-color:#2F87A5"/>
									<stop  offset="0.8978" style="stop-color:#3CCACE"/>
									<stop  offset="1" style="stop-color:#42E8E0"/>
								</linearGradient>
								<polygon class="st4" points="48.7,131.1 11.1,109.4 48.7,87.7 86.3,109.4 								"/>
								<linearGradient id="SVGID_2_" gradientUnits="userSpaceOnUse" x1="101.8784" y1="164.3809" x2="6.716" y2="102.572">
									<stop  offset="0" style="stop-color:#180D5B"/>
									<stop  offset="9.497968e-02" style="stop-color:#1A1660"/>
									<stop  offset="0.2466" style="stop-color:#1E2D6E"/>
									<stop  offset="0.436" style="stop-color:#255385"/>
									<stop  offset="0.6555" style="stop-color:#2F87A5"/>
									<stop  offset="0.8978" style="stop-color:#3CCACE"/>
									<stop  offset="1" style="stop-color:#42E8E0"/>
								</linearGradient>
								<polygon class="st5" points="86.3,109.4 86.3,153 48.7,174.7 48.7,131.1 								"/>
								
									<linearGradient id="SVGID_3_" gradientUnits="userSpaceOnUse" x1="-249.5054" y1="166.2234" x2="-172.5397" y2="125.1783" gradientTransform="matrix(-1 0 0 1 -174.287 0)">
									<stop  offset="0" style="stop-color:#180D5B"/>
									<stop  offset="9.497968e-02" style="stop-color:#1A1660"/>
									<stop  offset="0.2466" style="stop-color:#1E2D6E"/>
									<stop  offset="0.436" style="stop-color:#255385"/>
									<stop  offset="0.6555" style="stop-color:#2F87A5"/>
									<stop  offset="0.8978" style="stop-color:#3CCACE"/>
									<stop  offset="1" style="stop-color:#42E8E0"/>
								</linearGradient>
								<polygon class="st6" points="11.1,109.4 11.1,153 48.7,174.7 48.7,131.1 								"/>
							</g>
							<linearGradient id="SVGID_4_" gradientUnits="userSpaceOnUse" x1="113.1803" y1="188.333" x2="13.0636" y2="133.4276">
								<stop  offset="0" style="stop-color:#180D5B"/>
								<stop  offset="9.497968e-02" style="stop-color:#1A1660"/>
								<stop  offset="0.2466" style="stop-color:#1E2D6E"/>
								<stop  offset="0.436" style="stop-color:#255385"/>
								<stop  offset="0.6555" style="stop-color:#2F87A5"/>
								<stop  offset="0.8978" style="stop-color:#3CCACE"/>
								<stop  offset="1" style="stop-color:#42E8E0"/>
							</linearGradient>
							<polygon class="st7" points="48.7,174.7 11.1,153 48.7,131.3 86.3,153 							"/>
							<linearGradient id="SVGID_5_" gradientUnits="userSpaceOnUse" x1="32.5164" y1="171.0797" x2="102.1451" y2="171.0797">
								<stop  offset="0" style="stop-color:#2B237C"/>
								<stop  offset="1" style="stop-color:#180D5B"/>
							</linearGradient>
							<polygon class="st8" points="97.4,153 97.4,161.1 48.7,189.2 48.7,181.1 							"/>
							<polygon class="st2" points="0,153 0,161.1 48.7,189.2 48.7,181.1 							"/>
							<linearGradient id="SVGID_6_" gradientUnits="userSpaceOnUse" x1="53.8021" y1="187.82" x2="-9.6139" y2="151.7698">
								<stop  offset="0" style="stop-color:#180D5B"/>
								<stop  offset="9.513371e-02" style="stop-color:#1A1560"/>
								<stop  offset="0.2465" style="stop-color:#1E2D6E"/>
								<stop  offset="0.2819" style="stop-color:#1F3372"/>
								<stop  offset="0.3779" style="stop-color:#22447C"/>
								<stop  offset="0.5681" style="stop-color:#2B7097"/>
								<stop  offset="0.832" style="stop-color:#39B7C2"/>
								<stop  offset="1" style="stop-color:#42E8E0"/>
							</linearGradient>
							<polygon class="st9" points="0,153 0,161.1 48.7,189.2 48.7,181.1 							"/>
							<polygon class="st2" points="48.7,121.6 0,93.4 48.7,65.3 97.4,93.4 							"/>
							<polygon class="st2" points="0,85.3 0,93.4 48.7,121.6 48.7,113.5 							"/>
							<polygon class="st10" points="48.7,121.6 48.7,181.1 0,153 0,93.4 							"/>
							<g>
								<polygon class="st10" points="11.1,99.8 11.1,153 48.7,174.7 86.3,153 86.3,99.8 48.7,121.6 								"/>
								<polygon class="st10" points="48.7,121.6 48.7,174.7 11.1,153 11.1,99.8 								"/>
							</g>
							<polygon class="st11" points="0,93.4 0,153 48.7,181.1 97.4,153 97.4,93.4 48.7,121.6 							"/>
							<g>
								<polygon class="st2" points="48.7,113.5 0,85.3 48.7,57.2 97.4,85.3 								"/>
								<linearGradient id="SVGID_7_" gradientUnits="userSpaceOnUse" x1="81.1819" y1="106.4418" x2="-0.5113" y2="53.3812">
									<stop  offset="0" style="stop-color:#180D5B"/>
									<stop  offset="9.497968e-02" style="stop-color:#1A1660"/>
									<stop  offset="0.2466" style="stop-color:#1E2D6E"/>
									<stop  offset="0.436" style="stop-color:#255385"/>
									<stop  offset="0.6555" style="stop-color:#2F87A5"/>
									<stop  offset="0.8978" style="stop-color:#3CCACE"/>
									<stop  offset="1" style="stop-color:#42E8E0"/>
								</linearGradient>
								<polygon class="st12" points="48.7,113.5 0,85.3 48.7,57.2 97.4,85.3 								"/>
								<linearGradient id="SVGID_8_" gradientUnits="userSpaceOnUse" x1="32.5164" y1="103.4538" x2="102.1451" y2="103.4538">
									<stop  offset="0" style="stop-color:#2B237C"/>
									<stop  offset="1" style="stop-color:#180D5B"/>
								</linearGradient>
								<polygon class="st13" points="97.4,85.3 97.4,93.4 48.7,121.6 48.7,113.5 								"/>
								<linearGradient id="SVGID_9_" gradientUnits="userSpaceOnUse" x1="45.6889" y1="115.4823" x2="-11.3821" y2="83.3056">
									<stop  offset="0" style="stop-color:#180D5B"/>
									<stop  offset="9.513371e-02" style="stop-color:#1A1560"/>
									<stop  offset="0.2465" style="stop-color:#1E2D6E"/>
									<stop  offset="0.2819" style="stop-color:#1F3372"/>
									<stop  offset="0.3779" style="stop-color:#22447C"/>
									<stop  offset="0.5681" style="stop-color:#2B7097"/>
									<stop  offset="0.832" style="stop-color:#39B7C2"/>
									<stop  offset="1" style="stop-color:#42E8E0"/>
								</linearGradient>
								<polygon class="st14" points="0,85.3 0,93.4 48.7,121.6 48.7,113.5 								"/>
								<linearGradient id="SVGID_10_" gradientUnits="userSpaceOnUse" x1="64.9396" y1="89.0143" x2="-0.7377" y2="74.1832">
									<stop  offset="0" style="stop-color:#180D5B"/>
									<stop  offset="9.497968e-02" style="stop-color:#1A1660"/>
									<stop  offset="0.2466" style="stop-color:#1E2D6E"/>
									<stop  offset="0.436" style="stop-color:#255385"/>
									<stop  offset="0.6555" style="stop-color:#2F87A5"/>
									<stop  offset="0.8978" style="stop-color:#3CCACE"/>
									<stop  offset="1" style="stop-color:#42E8E0"/>
								</linearGradient>
								<polygon class="st15" points="1.2,85.3 49.3,57.6 48.7,57.2 0,85.3 48.7,113.5 49.3,113.1 								"/>
							</g>
							<g>
								<polygon class="st2" points="48.7,110.8 4.5,85.3 48.7,65.1 93,85.3 								"/>
								<polygon class="st2" points="4.5,83.3 4.5,85.3 48.7,110.8 48.7,108.9 								"/>
								<g>
									<polygon class="st2" points="48.7,108.9 4.5,83.3 48.7,57.8 93,83.3 									"/>
									<linearGradient id="SVGID_11_" gradientUnits="userSpaceOnUse" x1="78.2081" y1="102.4852" x2="3.9956" y2="54.2834">
										<stop  offset="0" style="stop-color:#180D5B"/>
										<stop  offset="9.497968e-02" style="stop-color:#1A1660"/>
										<stop  offset="0.2466" style="stop-color:#1E2D6E"/>
										<stop  offset="0.436" style="stop-color:#255385"/>
										<stop  offset="0.6555" style="stop-color:#2F87A5"/>
										<stop  offset="0.8978" style="stop-color:#3CCACE"/>
										<stop  offset="1" style="stop-color:#42E8E0"/>
									</linearGradient>
									<polygon class="st16" points="48.7,108.9 4.5,83.3 48.7,57.8 93,83.3 									"/>
									<linearGradient id="SVGID_12_" gradientUnits="userSpaceOnUse" x1="33.9989" y1="97.0655" x2="97.2517" y2="97.0655">
										<stop  offset="0" style="stop-color:#2B237C"/>
										<stop  offset="1" style="stop-color:#180D5B"/>
									</linearGradient>
									<polygon class="st17" points="93,83.3 93,85.3 48.7,110.8 48.7,108.9 									"/>
									<linearGradient id="SVGID_13_" gradientUnits="userSpaceOnUse" x1="45.0236" y1="107.4616" x2="-4.3027" y2="79.6515">
										<stop  offset="0" style="stop-color:#180D5B"/>
										<stop  offset="9.513371e-02" style="stop-color:#1A1560"/>
										<stop  offset="0.2465" style="stop-color:#1E2D6E"/>
										<stop  offset="0.2819" style="stop-color:#1F3372"/>
										<stop  offset="0.3779" style="stop-color:#22447C"/>
										<stop  offset="0.5681" style="stop-color:#2B7097"/>
										<stop  offset="0.832" style="stop-color:#39B7C2"/>
										<stop  offset="1" style="stop-color:#42E8E0"/>
									</linearGradient>
									<polygon class="st18" points="4.5,83.3 4.5,85.3 48.7,110.8 48.7,108.9 									"/>
									<linearGradient id="SVGID_14_" gradientUnits="userSpaceOnUse" x1="63.453" y1="86.6536" x2="3.7899" y2="73.1805">
										<stop  offset="0" style="stop-color:#180D5B"/>
										<stop  offset="9.497968e-02" style="stop-color:#1A1660"/>
										<stop  offset="0.2466" style="stop-color:#1E2D6E"/>
										<stop  offset="0.436" style="stop-color:#255385"/>
										<stop  offset="0.6555" style="stop-color:#2F87A5"/>
										<stop  offset="0.8978" style="stop-color:#3CCACE"/>
										<stop  offset="1" style="stop-color:#42E8E0"/>
									</linearGradient>
									<polygon class="st19" points="5.5,83.3 49.2,58.1 48.7,57.8 4.5,83.3 48.7,108.9 49.2,108.6 									"/>
								</g>
							</g>
							<g>
								<polygon class="st0" points="18.6,84.3 17,83.3 48.7,65 50.4,66 								"/>
								<polygon class="st0" points="22,86.2 20.3,85.3 52,66.9 53.7,67.9 								"/>
								<polygon class="st0" points="25.3,88.1 23.6,87.2 55.4,68.9 57.1,69.8 								"/>
								<polygon class="st0" points="28.7,90.1 27,89.1 58.7,70.8 60.4,71.7 								"/>
								<polygon class="st0" points="32,92 30.3,91 62.1,72.7 63.7,73.7 								"/>
								<polygon class="st0" points="35.3,93.9 33.7,93 65.4,74.6 67.1,75.6 								"/>
								<polygon class="st0" points="38.7,95.9 37,94.9 68.8,76.6 70.4,77.5 								"/>
								<polygon class="st0" points="42,97.8 40.4,96.8 72.1,78.5 73.8,79.5 								"/>
								<polygon class="st0" points="45.4,99.7 43.7,98.8 75.4,80.4 77.1,81.4 								"/>
								<polygon class="st0" points="48.7,101.7 47,100.7 78.8,82.4 80.5,83.3 								"/>
							</g>
							<polygon class="st20" points="48.7,65 50.4,66 48.7,66.9 							"/>
							<polygon class="st20" points="52,66.9 53.7,67.9 52,68.9 							"/>
							<polygon class="st20" points="55.4,68.9 57.1,69.8 55.4,70.8 							"/>
							<polygon class="st20" points="58.7,70.8 60.4,71.7 58.7,72.7 							"/>
							<polygon class="st20" points="62.1,72.7 63.7,73.7 62.1,74.6 							"/>
							<polygon class="st20" points="65.4,74.6 67.1,75.6 65.4,76.6 							"/>
							<polygon class="st20" points="68.8,76.6 70.4,77.5 68.8,78.5 							"/>
							<polygon class="st20" points="72.1,78.5 73.8,79.5 72.1,80.4 							"/>
							<polygon class="st20" points="75.4,80.4 77.1,81.4 75.4,82.4 							"/>
							<polygon class="st20" points="78.8,82.4 80.5,83.3 78.8,84.3 							"/>
							<g class="st21">
								<polygon class="st22" points="18.6,84.3 17,83.3 48.7,65 50.4,66 								"/>
								<polygon class="st22" points="22,86.2 20.3,85.3 52,66.9 53.7,67.9 								"/>
								<polygon class="st22" points="25.3,88.1 23.6,87.2 55.4,68.9 57.1,69.8 								"/>
								<polygon class="st22" points="28.7,90.1 27,89.1 58.7,70.8 60.4,71.7 								"/>
								<polygon class="st22" points="32,92 30.3,91 62.1,72.7 63.7,73.7 								"/>
								<polygon class="st22" points="35.3,93.9 33.7,93 65.4,74.6 67.1,75.6 								"/>
								<polygon class="st22" points="38.7,95.9 37,94.9 68.8,76.6 70.4,77.5 								"/>
								<polygon class="st22" points="42,97.8 40.4,96.8 72.1,78.5 73.8,79.5 								"/>
								<polygon class="st22" points="45.4,99.7 43.7,98.8 75.4,80.4 77.1,81.4 								"/>
								<polygon class="st22" points="48.7,101.7 47,100.7 78.8,82.4 80.5,83.3 								"/>
							</g>
						</g>
						<polygon class="st23" points="0,93.4 0,153 0.7,153.4 0.7,93.8 						"/>
						<polygon class="st23" points="97.4,93.4 97.4,153 96.7,153.4 96.7,93.8 						"/>
						<polygon class="st23" points="48.7,121.6 48.7,121.6 47.6,120.9 47.6,180.4 48.7,181.1 48.7,181.1 48.7,181.1 48.7,181.1 
							48.7,181.1 49.9,180.4 49.9,120.9 						"/>
					</g>
				</g>
				<polygon class="st11" points="0.7,147.1 45,119.4 13.4,101.2 0.7,108.1 				"/>
				<polygon class="st11" points="10.6,159.1 47.6,138.1 47.6,153.4 23.1,166.3 				"/>
			</g>
			<g class="st24">
				<polygon class="st25" points="3,100.8 45,125 45,123.1 3,98.9 				"/>
				<polygon class="st25" points="3,105.2 45,129.4 45,127.5 3,103.3 				"/>
				<polygon class="st25" points="3,109.7 45,133.9 45,132 3,107.8 				"/>
				<polygon class="st25" points="3,114.1 45,138.3 45,136.4 3,112.2 				"/>
				<polygon class="st25" points="3,118.6 45,142.8 45,140.9 3,116.7 				"/>
				<polygon class="st25" points="3,123 45,147.2 45,145.3 3,121.1 				"/>
				<polygon class="st25" points="3,127.4 45,151.7 45,149.8 3,125.5 				"/>
				<polygon class="st25" points="3,131.9 45,156.1 45,154.2 3,130 				"/>
				<polygon class="st25" points="3,136.3 45,160.6 45,158.7 3,134.4 				"/>
				<polygon class="st25" points="3,140.8 45,165 45,163.1 3,138.9 				"/>
				<polygon class="st25" points="3,145.2 45,169.5 45,167.6 3,143.3 				"/>
				<polygon class="st25" points="3,149.7 45,173.9 45,172 3,147.8 				"/>
			</g>
		</g>
	</g>
	<g>
		<g>
			<g>
				<g>
					<g>
						<g>
							<polygon class="st2" points="278.4,187.9 229.7,159.8 278.4,131.7 327.1,159.8 							"/>
							<polygon class="st2" points="278.4,179.9 229.7,151.7 278.4,123.6 327.1,151.7 							"/>
							<g class="st3">
								<linearGradient id="SVGID_15_" gradientUnits="userSpaceOnUse" x1="374.1701" y1="127.8952" x2="234.0841" y2="99.082">
									<stop  offset="0" style="stop-color:#180D5B"/>
									<stop  offset="9.497968e-02" style="stop-color:#1A1660"/>
									<stop  offset="0.2466" style="stop-color:#1E2D6E"/>
									<stop  offset="0.436" style="stop-color:#255385"/>
									<stop  offset="0.6555" style="stop-color:#2F87A5"/>
									<stop  offset="0.8978" style="stop-color:#3CCACE"/>
									<stop  offset="1" style="stop-color:#42E8E0"/>
								</linearGradient>
								<polygon class="st26" points="278.4,129.9 240.8,108.2 278.4,86.5 316,108.2 								"/>
								<linearGradient id="SVGID_16_" gradientUnits="userSpaceOnUse" x1="331.5295" y1="163.1399" x2="236.3671" y2="101.331">
									<stop  offset="0" style="stop-color:#180D5B"/>
									<stop  offset="9.497968e-02" style="stop-color:#1A1660"/>
									<stop  offset="0.2466" style="stop-color:#1E2D6E"/>
									<stop  offset="0.436" style="stop-color:#255385"/>
									<stop  offset="0.6555" style="stop-color:#2F87A5"/>
									<stop  offset="0.8978" style="stop-color:#3CCACE"/>
									<stop  offset="1" style="stop-color:#42E8E0"/>
								</linearGradient>
								<polygon class="st27" points="316,108.2 316,151.7 278.4,173.4 278.4,129.9 								"/>
								
									<linearGradient id="SVGID_17_" gradientUnits="userSpaceOnUse" x1="-479.1566" y1="164.9825" x2="-402.1908" y2="123.9374" gradientTransform="matrix(-1 0 0 1 -174.287 0)">
									<stop  offset="0" style="stop-color:#180D5B"/>
									<stop  offset="9.497968e-02" style="stop-color:#1A1660"/>
									<stop  offset="0.2466" style="stop-color:#1E2D6E"/>
									<stop  offset="0.436" style="stop-color:#255385"/>
									<stop  offset="0.6555" style="stop-color:#2F87A5"/>
									<stop  offset="0.8978" style="stop-color:#3CCACE"/>
									<stop  offset="1" style="stop-color:#42E8E0"/>
								</linearGradient>
								<polygon class="st28" points="240.8,108.2 240.8,151.7 278.4,173.4 278.4,129.9 								"/>
							</g>
							<linearGradient id="SVGID_18_" gradientUnits="userSpaceOnUse" x1="342.8314" y1="187.092" x2="242.7147" y2="132.1866">
								<stop  offset="0" style="stop-color:#180D5B"/>
								<stop  offset="9.497968e-02" style="stop-color:#1A1660"/>
								<stop  offset="0.2466" style="stop-color:#1E2D6E"/>
								<stop  offset="0.436" style="stop-color:#255385"/>
								<stop  offset="0.6555" style="stop-color:#2F87A5"/>
								<stop  offset="0.8978" style="stop-color:#3CCACE"/>
								<stop  offset="1" style="stop-color:#42E8E0"/>
							</linearGradient>
							<polygon class="st29" points="278.4,173.4 240.8,151.7 278.4,130 316,151.7 							"/>
							<linearGradient id="SVGID_19_" gradientUnits="userSpaceOnUse" x1="262.1675" y1="169.8388" x2="331.7962" y2="169.8388">
								<stop  offset="0" style="stop-color:#2B237C"/>
								<stop  offset="1" style="stop-color:#180D5B"/>
							</linearGradient>
							<polygon class="st30" points="327.1,151.7 327.1,159.8 278.4,187.9 278.4,179.9 							"/>
							<polygon class="st2" points="229.7,151.7 229.7,159.8 278.4,187.9 278.4,179.9 							"/>
							<linearGradient id="SVGID_20_" gradientUnits="userSpaceOnUse" x1="283.4532" y1="186.5791" x2="220.0371" y2="150.5289">
								<stop  offset="0" style="stop-color:#180D5B"/>
								<stop  offset="9.513371e-02" style="stop-color:#1A1560"/>
								<stop  offset="0.2465" style="stop-color:#1E2D6E"/>
								<stop  offset="0.2819" style="stop-color:#1F3372"/>
								<stop  offset="0.3779" style="stop-color:#22447C"/>
								<stop  offset="0.5681" style="stop-color:#2B7097"/>
								<stop  offset="0.832" style="stop-color:#39B7C2"/>
								<stop  offset="1" style="stop-color:#42E8E0"/>
							</linearGradient>
							<polygon class="st31" points="229.7,151.7 229.7,159.8 278.4,187.9 278.4,179.9 							"/>
							<polygon class="st2" points="278.4,120.3 229.7,92.2 278.4,64.1 327.1,92.2 							"/>
							<polygon class="st2" points="229.7,84.1 229.7,92.2 278.4,120.3 278.4,112.2 							"/>
							<polygon class="st10" points="278.4,120.3 278.4,179.9 229.7,151.7 229.7,92.2 							"/>
							<g>
								<polygon class="st10" points="240.8,98.6 240.8,151.7 278.4,173.4 316,151.7 316,98.6 278.4,120.3 								"/>
								<polygon class="st10" points="278.4,120.3 278.4,173.4 240.8,151.7 240.8,98.6 								"/>
							</g>
							<polygon class="st11" points="229.7,92.2 229.7,151.7 278.4,179.9 327.1,151.7 327.1,92.2 278.4,120.3 							"/>
							<g>
								<polygon class="st2" points="278.4,112.2 229.7,84.1 278.4,56 327.1,84.1 								"/>
								<linearGradient id="SVGID_21_" gradientUnits="userSpaceOnUse" x1="310.833" y1="105.2008" x2="229.1397" y2="52.1402">
									<stop  offset="0" style="stop-color:#180D5B"/>
									<stop  offset="9.497968e-02" style="stop-color:#1A1660"/>
									<stop  offset="0.2466" style="stop-color:#1E2D6E"/>
									<stop  offset="0.436" style="stop-color:#255385"/>
									<stop  offset="0.6555" style="stop-color:#2F87A5"/>
									<stop  offset="0.8978" style="stop-color:#3CCACE"/>
									<stop  offset="1" style="stop-color:#42E8E0"/>
								</linearGradient>
								<polygon class="st32" points="278.4,112.2 229.7,84.1 278.4,56 327.1,84.1 								"/>
								<linearGradient id="SVGID_22_" gradientUnits="userSpaceOnUse" x1="262.1675" y1="102.2128" x2="331.7962" y2="102.2128">
									<stop  offset="0" style="stop-color:#2B237C"/>
									<stop  offset="1" style="stop-color:#180D5B"/>
								</linearGradient>
								<polygon class="st33" points="327.1,84.1 327.1,92.2 278.4,120.3 278.4,112.2 								"/>
								<linearGradient id="SVGID_23_" gradientUnits="userSpaceOnUse" x1="275.34" y1="114.2413" x2="218.2689" y2="82.0646">
									<stop  offset="0" style="stop-color:#180D5B"/>
									<stop  offset="9.513371e-02" style="stop-color:#1A1560"/>
									<stop  offset="0.2465" style="stop-color:#1E2D6E"/>
									<stop  offset="0.2819" style="stop-color:#1F3372"/>
									<stop  offset="0.3779" style="stop-color:#22447C"/>
									<stop  offset="0.5681" style="stop-color:#2B7097"/>
									<stop  offset="0.832" style="stop-color:#39B7C2"/>
									<stop  offset="1" style="stop-color:#42E8E0"/>
								</linearGradient>
								<polygon class="st34" points="229.7,84.1 229.7,92.2 278.4,120.3 278.4,112.2 								"/>
								<linearGradient id="SVGID_24_" gradientUnits="userSpaceOnUse" x1="294.5906" y1="87.7733" x2="228.9133" y2="72.9422">
									<stop  offset="0" style="stop-color:#180D5B"/>
									<stop  offset="9.497968e-02" style="stop-color:#1A1660"/>
									<stop  offset="0.2466" style="stop-color:#1E2D6E"/>
									<stop  offset="0.436" style="stop-color:#255385"/>
									<stop  offset="0.6555" style="stop-color:#2F87A5"/>
									<stop  offset="0.8978" style="stop-color:#3CCACE"/>
									<stop  offset="1" style="stop-color:#42E8E0"/>
								</linearGradient>
								<polygon class="st35" points="230.8,84.1 278.9,56.3 278.4,56 229.7,84.1 278.4,112.2 278.9,111.9 								"/>
							</g>
							<g>
								<polygon class="st2" points="278.4,109.6 234.1,84 278.4,63.9 322.6,84 								"/>
								<polygon class="st2" points="234.1,82.1 234.1,84 278.4,109.6 278.4,107.6 								"/>
								<g>
									<polygon class="st2" points="278.4,107.6 234.1,82.1 278.4,56.5 322.6,82.1 									"/>
									<linearGradient id="SVGID_25_" gradientUnits="userSpaceOnUse" x1="307.8591" y1="101.2442" x2="233.6467" y2="53.0425">
										<stop  offset="0" style="stop-color:#180D5B"/>
										<stop  offset="9.497968e-02" style="stop-color:#1A1660"/>
										<stop  offset="0.2466" style="stop-color:#1E2D6E"/>
										<stop  offset="0.436" style="stop-color:#255385"/>
										<stop  offset="0.6555" style="stop-color:#2F87A5"/>
										<stop  offset="0.8978" style="stop-color:#3CCACE"/>
										<stop  offset="1" style="stop-color:#42E8E0"/>
									</linearGradient>
									<polygon class="st36" points="278.4,107.6 234.1,82.1 278.4,56.5 322.6,82.1 									"/>
									<linearGradient id="SVGID_26_" gradientUnits="userSpaceOnUse" x1="263.65" y1="95.8245" x2="326.9026" y2="95.8245">
										<stop  offset="0" style="stop-color:#2B237C"/>
										<stop  offset="1" style="stop-color:#180D5B"/>
									</linearGradient>
									<polygon class="st37" points="322.6,82.1 322.6,84 278.4,109.6 278.4,107.6 									"/>
									<linearGradient id="SVGID_27_" gradientUnits="userSpaceOnUse" x1="274.6747" y1="106.2207" x2="225.3485" y2="78.4105">
										<stop  offset="0" style="stop-color:#180D5B"/>
										<stop  offset="9.513371e-02" style="stop-color:#1A1560"/>
										<stop  offset="0.2465" style="stop-color:#1E2D6E"/>
										<stop  offset="0.2819" style="stop-color:#1F3372"/>
										<stop  offset="0.3779" style="stop-color:#22447C"/>
										<stop  offset="0.5681" style="stop-color:#2B7097"/>
										<stop  offset="0.832" style="stop-color:#39B7C2"/>
										<stop  offset="1" style="stop-color:#42E8E0"/>
									</linearGradient>
									<polygon class="st38" points="234.1,82.1 234.1,84 278.4,109.6 278.4,107.6 									"/>
									<linearGradient id="SVGID_28_" gradientUnits="userSpaceOnUse" x1="293.1041" y1="85.4126" x2="233.441" y2="71.9396">
										<stop  offset="0" style="stop-color:#180D5B"/>
										<stop  offset="9.497968e-02" style="stop-color:#1A1660"/>
										<stop  offset="0.2466" style="stop-color:#1E2D6E"/>
										<stop  offset="0.436" style="stop-color:#255385"/>
										<stop  offset="0.6555" style="stop-color:#2F87A5"/>
										<stop  offset="0.8978" style="stop-color:#3CCACE"/>
										<stop  offset="1" style="stop-color:#42E8E0"/>
									</linearGradient>
									<polygon class="st39" points="235.2,82.1 278.9,56.8 278.4,56.5 234.1,82.1 278.4,107.6 278.9,107.3 									"/>
								</g>
							</g>
							<g>
								<polygon class="st0" points="248.3,83 246.6,82.1 278.4,63.8 280,64.7 								"/>
								<polygon class="st0" points="251.6,85 250,84 281.7,65.7 283.4,66.6 								"/>
								<polygon class="st0" points="255,86.9 253.3,85.9 285,67.6 286.7,68.6 								"/>
								<polygon class="st0" points="258.3,88.8 256.6,87.9 288.4,69.5 290.1,70.5 								"/>
								<polygon class="st0" points="261.6,90.8 260,89.8 291.7,71.5 293.4,72.4 								"/>
								<polygon class="st0" points="265,92.7 263.3,91.7 295.1,73.4 296.7,74.4 								"/>
								<polygon class="st0" points="268.3,94.6 266.7,93.7 298.4,75.3 300.1,76.3 								"/>
								<polygon class="st0" points="271.7,96.6 270,95.6 301.8,77.3 303.4,78.2 								"/>
								<polygon class="st0" points="275,98.5 273.3,97.5 305.1,79.2 306.8,80.2 								"/>
								<polygon class="st0" points="278.4,100.4 276.7,99.4 308.4,81.1 310.1,82.1 								"/>
							</g>
							<polygon class="st20" points="278.4,63.8 280,64.7 278.4,65.7 							"/>
							<polygon class="st20" points="281.7,65.7 283.4,66.6 281.7,67.6 							"/>
							<polygon class="st20" points="285,67.6 286.7,68.6 285,69.5 							"/>
							<polygon class="st20" points="288.4,69.5 290.1,70.5 288.4,71.5 							"/>
							<polygon class="st20" points="291.7,71.5 293.4,72.4 291.7,73.4 							"/>
							<polygon class="st20" points="295.1,73.4 296.7,74.4 295.1,75.3 							"/>
							<polygon class="st20" points="298.4,75.3 300.1,76.3 298.4,77.3 							"/>
							<polygon class="st20" points="301.8,77.3 303.4,78.2 301.8,79.2 							"/>
							<polygon class="st20" points="305.1,79.2 306.8,80.2 305.1,81.1 							"/>
							<polygon class="st20" points="308.4,81.1 310.1,82.1 308.4,83 							"/>
							<g class="st21">
								<polygon class="st22" points="248.3,83 246.6,82.1 278.4,63.8 280,64.7 								"/>
								<polygon class="st22" points="251.6,85 250,84 281.7,65.7 283.4,66.6 								"/>
								<polygon class="st22" points="255,86.9 253.3,85.9 285,67.6 286.7,68.6 								"/>
								<polygon class="st22" points="258.3,88.8 256.6,87.9 288.4,69.5 290.1,70.5 								"/>
								<polygon class="st22" points="261.6,90.8 260,89.8 291.7,71.5 293.4,72.4 								"/>
								<polygon class="st22" points="265,92.7 263.3,91.7 295.1,73.4 296.7,74.4 								"/>
								<polygon class="st22" points="268.3,94.6 266.7,93.7 298.4,75.3 300.1,76.3 								"/>
								<polygon class="st22" points="271.7,96.6 270,95.6 301.8,77.3 303.4,78.2 								"/>
								<polygon class="st22" points="275,98.5 273.3,97.5 305.1,79.2 306.8,80.2 								"/>
								<polygon class="st22" points="278.4,100.4 276.7,99.4 308.4,81.1 310.1,82.1 								"/>
							</g>
						</g>
						<polygon class="st23" points="229.7,92.2 229.7,151.7 230.3,152.1 230.3,92.6 						"/>
						<polygon class="st23" points="327.1,92.2 327.1,151.7 326.4,152.1 326.4,92.6 						"/>
						<polygon class="st23" points="278.4,120.3 278.4,120.3 277.2,119.7 277.2,179.2 278.4,179.9 278.4,179.9 278.4,179.9 
							278.4,179.9 278.4,179.9 279.5,179.2 279.5,119.7 						"/>
					</g>
				</g>
				<polygon class="st11" points="230.3,145.9 274.6,118.2 243,99.9 230.3,106.9 				"/>
				<polygon class="st11" points="240.3,157.9 277.2,136.9 277.2,152.1 252.8,165.1 				"/>
			</g>
			<g class="st24">
				<polygon class="st25" points="232.7,99.5 274.7,123.8 274.7,121.9 232.7,97.6 				"/>
				<polygon class="st25" points="232.7,104 274.7,128.2 274.7,126.3 232.7,102.1 				"/>
				<polygon class="st25" points="232.7,108.4 274.7,132.6 274.7,130.8 232.7,106.5 				"/>
				<polygon class="st25" points="232.7,112.9 274.7,137.1 274.7,135.2 232.7,111 				"/>
				<polygon class="st25" points="232.7,117.3 274.7,141.5 274.7,139.6 232.7,115.4 				"/>
				<polygon class="st25" points="232.7,121.8 274.7,146 274.7,144.1 232.7,119.9 				"/>
				<polygon class="st25" points="232.7,126.2 274.7,150.4 274.7,148.5 232.7,124.3 				"/>
				<polygon class="st25" points="232.7,130.6 274.7,154.9 274.7,153 232.7,128.8 				"/>
				<polygon class="st25" points="232.7,135.1 274.7,159.3 274.7,157.4 232.7,133.2 				"/>
				<polygon class="st25" points="232.7,139.5 274.7,163.8 274.7,161.9 232.7,137.6 				"/>
				<polygon class="st25" points="232.7,144 274.7,168.2 274.7,166.3 232.7,142.1 				"/>
				<polygon class="st25" points="232.7,148.4 274.7,172.7 274.7,170.8 232.7,146.5 				"/>
			</g>
		</g>
	</g>
	<g>
		<g>
			<g>
				<path class="st40" d="M53.3,123.7c0,0.5-0.4,1.2-0.8,1.4c-0.5,0.3-0.8,0-0.8-0.5c0-0.5,0.4-1.2,0.8-1.4
					C52.9,123,53.3,123.2,53.3,123.7z"/>
				<path class="st40" d="M56,122.2c0,0.5-0.4,1.2-0.8,1.4c-0.5,0.3-0.8,0-0.8-0.5c0-0.5,0.4-1.2,0.8-1.4
					C55.6,121.4,56,121.7,56,122.2z"/>
				<path class="st40" d="M58.7,120.6c0,0.5-0.4,1.2-0.8,1.4c-0.5,0.3-0.8,0-0.8-0.5c0-0.5,0.4-1.2,0.8-1.4
					C58.3,119.9,58.7,120.1,58.7,120.6z"/>
				<polygon class="st40" points="80.6,108.9 59.9,120.8 59.9,119 80.6,107 				"/>
			</g>
			<g>
				<path class="st40" d="M53.3,128.2c0,0.5-0.4,1.2-0.8,1.4c-0.5,0.3-0.8,0-0.8-0.5c0-0.5,0.4-1.2,0.8-1.4
					C52.9,127.4,53.3,127.7,53.3,128.2z"/>
				<path class="st40" d="M56,126.6c0,0.5-0.4,1.2-0.8,1.4c-0.5,0.3-0.8,0-0.8-0.5c0-0.5,0.4-1.2,0.8-1.4
					C55.6,125.9,56,126.1,56,126.6z"/>
				<path class="st40" d="M58.7,125.1c0,0.5-0.4,1.2-0.8,1.4c-0.5,0.3-0.8,0-0.8-0.5c0-0.5,0.4-1.2,0.8-1.4
					C58.3,124.3,58.7,124.5,58.7,125.1z"/>
				<polygon class="st40" points="80.6,113.4 59.9,125.3 59.9,123.4 80.6,111.5 				"/>
			</g>
			<g>
				<path class="st40" d="M53.3,132.6c0,0.5-0.4,1.2-0.8,1.4c-0.5,0.3-0.8,0-0.8-0.5c0-0.5,0.4-1.2,0.8-1.4
					C52.9,131.9,53.3,132.1,53.3,132.6z"/>
				<path class="st40" d="M56,131.1c0,0.5-0.4,1.2-0.8,1.4c-0.5,0.3-0.8,0-0.8-0.5c0-0.5,0.4-1.2,0.8-1.4
					C55.6,130.3,56,130.5,56,131.1z"/>
				<path class="st40" d="M58.7,129.5c0,0.5-0.4,1.2-0.8,1.4c-0.5,0.3-0.8,0-0.8-0.5c0-0.5,0.4-1.2,0.8-1.4
					C58.3,128.8,58.7,129,58.7,129.5z"/>
				<polygon class="st40" points="80.6,117.8 59.9,129.7 59.9,127.8 80.6,115.9 				"/>
			</g>
			<g>
				<path class="st40" d="M53.3,137.1c0,0.5-0.4,1.2-0.8,1.4c-0.5,0.3-0.8,0-0.8-0.5c0-0.5,0.4-1.2,0.8-1.4
					C52.9,136.3,53.3,136.6,53.3,137.1z"/>
				<path class="st40" d="M56,135.5c0,0.5-0.4,1.2-0.8,1.4c-0.5,0.3-0.8,0-0.8-0.5c0-0.5,0.4-1.2,0.8-1.4
					C55.6,134.8,56,135,56,135.5z"/>
				<path class="st40" d="M58.7,134c0,0.5-0.4,1.2-0.8,1.4c-0.5,0.3-0.8,0-0.8-0.5c0-0.5,0.4-1.2,0.8-1.4
					C58.3,133.2,58.7,133.4,58.7,134z"/>
				<polygon class="st40" points="80.6,122.3 59.9,134.2 59.9,132.3 80.6,120.4 				"/>
			</g>
			<g>
				<path class="st40" d="M53.3,141.5c0,0.5-0.4,1.2-0.8,1.4c-0.5,0.3-0.8,0-0.8-0.5c0-0.5,0.4-1.2,0.8-1.4
					C52.9,140.8,53.3,141,53.3,141.5z"/>
				<path class="st40" d="M56,140c0,0.5-0.4,1.2-0.8,1.4c-0.5,0.3-0.8,0-0.8-0.5c0-0.5,0.4-1.2,0.8-1.4C55.6,139.2,56,139.4,56,140z
					"/>
				<path class="st40" d="M58.7,138.4c0,0.5-0.4,1.2-0.8,1.4c-0.5,0.3-0.8,0-0.8-0.5s0.4-1.2,0.8-1.4
					C58.3,137.7,58.7,137.9,58.7,138.4z"/>
				<polygon class="st40" points="80.6,126.7 59.9,138.6 59.9,136.7 80.6,124.8 				"/>
			</g>
			<g>
				<path class="st40" d="M53.3,146c0,0.5-0.4,1.2-0.8,1.4c-0.5,0.3-0.8,0-0.8-0.5c0-0.5,0.4-1.2,0.8-1.4
					C52.9,145.2,53.3,145.4,53.3,146z"/>
				<path class="st40" d="M56,144.4c0,0.5-0.4,1.2-0.8,1.4c-0.5,0.3-0.8,0-0.8-0.5c0-0.5,0.4-1.2,0.8-1.4
					C55.6,143.7,56,143.9,56,144.4z"/>
				<path class="st40" d="M58.7,142.9c0,0.5-0.4,1.2-0.8,1.4c-0.5,0.3-0.8,0-0.8-0.5c0-0.5,0.4-1.2,0.8-1.4
					C58.3,142.1,58.7,142.3,58.7,142.9z"/>
				<polygon class="st40" points="80.6,131.1 59.9,143.1 59.9,141.2 80.6,129.3 				"/>
			</g>
			<g>
				<path class="st40" d="M53.3,150.4c0,0.5-0.4,1.2-0.8,1.4c-0.5,0.3-0.8,0-0.8-0.5c0-0.5,0.4-1.2,0.8-1.4
					C52.9,149.7,53.3,149.9,53.3,150.4z"/>
				<path class="st40" d="M56,148.9c0,0.5-0.4,1.2-0.8,1.4c-0.5,0.3-0.8,0-0.8-0.5c0-0.5,0.4-1.2,0.8-1.4
					C55.6,148.1,56,148.3,56,148.9z"/>
				<path class="st40" d="M58.7,147.3c0,0.5-0.4,1.2-0.8,1.4c-0.5,0.3-0.8,0-0.8-0.5c0-0.5,0.4-1.2,0.8-1.4
					C58.3,146.6,58.7,146.8,58.7,147.3z"/>
				<polygon class="st40" points="80.6,135.6 59.9,147.5 59.9,145.6 80.6,133.7 				"/>
			</g>
			<g>
				<path class="st40" d="M53.3,154.9c0,0.5-0.4,1.2-0.8,1.4c-0.5,0.3-0.8,0-0.8-0.5s0.4-1.2,0.8-1.4
					C52.9,154.1,53.3,154.3,53.3,154.9z"/>
				<path class="st40" d="M56,153.3c0,0.5-0.4,1.2-0.8,1.4c-0.5,0.3-0.8,0-0.8-0.5s0.4-1.2,0.8-1.4C55.6,152.6,56,152.8,56,153.3z"
					/>
				<path class="st40" d="M58.7,151.7c0,0.5-0.4,1.2-0.8,1.4c-0.5,0.3-0.8,0-0.8-0.5s0.4-1.2,0.8-1.4
					C58.3,151,58.7,151.2,58.7,151.7z"/>
				<polygon class="st40" points="80.6,140 59.9,152 59.9,150.1 80.6,138.1 				"/>
			</g>
			<g>
				<path class="st40" d="M53.3,159.3c0,0.5-0.4,1.2-0.8,1.4c-0.5,0.3-0.8,0-0.8-0.5c0-0.5,0.4-1.2,0.8-1.4
					C52.9,158.6,53.3,158.8,53.3,159.3z"/>
				<path class="st40" d="M56,157.8c0,0.5-0.4,1.2-0.8,1.4c-0.5,0.3-0.8,0-0.8-0.5c0-0.5,0.4-1.2,0.8-1.4
					C55.6,157,56,157.2,56,157.8z"/>
				<path class="st40" d="M58.7,156.2c0,0.5-0.4,1.2-0.8,1.4c-0.5,0.3-0.8,0-0.8-0.5c0-0.5,0.4-1.2,0.8-1.4
					C58.3,155.5,58.7,155.7,58.7,156.2z"/>
				<polygon class="st40" points="80.6,144.5 59.9,156.4 59.9,154.5 80.6,142.6 				"/>
			</g>
			<g>
				<path class="st40" d="M53.3,163.8c0,0.5-0.4,1.2-0.8,1.4c-0.5,0.3-0.8,0-0.8-0.5c0-0.5,0.4-1.2,0.8-1.4
					C52.9,163,53.3,163.2,53.3,163.8z"/>
				<path class="st40" d="M56,162.2c0,0.5-0.4,1.2-0.8,1.4c-0.5,0.3-0.8,0-0.8-0.5c0-0.5,0.4-1.2,0.8-1.4
					C55.6,161.5,56,161.7,56,162.2z"/>
				<path class="st40" d="M58.7,160.6c0,0.5-0.4,1.2-0.8,1.4c-0.5,0.3-0.8,0-0.8-0.5c0-0.5,0.4-1.2,0.8-1.4
					C58.3,159.9,58.7,160.1,58.7,160.6z"/>
				<polygon class="st40" points="80.6,148.9 59.9,160.9 59.9,159 80.6,147 				"/>
			</g>
			<g>
				<path class="st40" d="M53.3,168.2c0,0.5-0.4,1.2-0.8,1.4c-0.5,0.3-0.8,0-0.8-0.5s0.4-1.2,0.8-1.4
					C52.9,167.5,53.3,167.7,53.3,168.2z"/>
				<path class="st40" d="M56,166.6c0,0.5-0.4,1.2-0.8,1.4c-0.5,0.3-0.8,0-0.8-0.5c0-0.5,0.4-1.2,0.8-1.4
					C55.6,165.9,56,166.1,56,166.6z"/>
				<path class="st40" d="M58.7,165.1c0,0.5-0.4,1.2-0.8,1.4c-0.5,0.3-0.8,0-0.8-0.5c0-0.5,0.4-1.2,0.8-1.4
					C58.3,164.3,58.7,164.6,58.7,165.1z"/>
				<polygon class="st40" points="80.6,153.4 59.9,165.3 59.9,163.4 80.6,151.5 				"/>
			</g>
			<g>
				<path class="st40" d="M53.3,172.6c0,0.5-0.4,1.2-0.8,1.4c-0.5,0.3-0.8,0-0.8-0.5c0-0.5,0.4-1.2,0.8-1.4
					C52.9,171.9,53.3,172.1,53.3,172.6z"/>
				<path class="st40" d="M56,171.1c0,0.5-0.4,1.2-0.8,1.4c-0.5,0.3-0.8,0-0.8-0.5c0-0.5,0.4-1.2,0.8-1.4
					C55.6,170.4,56,170.6,56,171.1z"/>
				<path class="st40" d="M58.7,169.5c0,0.5-0.4,1.2-0.8,1.4c-0.5,0.3-0.8,0-0.8-0.5c0-0.5,0.4-1.2,0.8-1.4
					C58.3,168.8,58.7,169,58.7,169.5z"/>
				<polygon class="st40" points="80.6,157.8 59.9,169.8 59.9,167.9 80.6,155.9 				"/>
			</g>
		</g>
		<polygon class="st41" points="94.7,149.8 82.5,156.8 82.5,106.1 94.7,99.1 		"/>
	</g>
	<path class="st0" d="M163,188.4c-0.2,0-0.4,0-0.5-0.1l-89.2-51.5c-0.5-0.3-0.7-0.9-0.4-1.4c0.3-0.5,0.9-0.7,1.4-0.4l89.2,51.5
		c0.5,0.3,0.7,0.9,0.4,1.4C163.7,188.2,163.3,188.4,163,188.4z"/>
	<path class="st40" d="M162.6,264.1l-0.2-0.1l-63.8-36.8l64-36.9l0.2,0.1l63.8,36.8L162.6,264.1z M100.2,227.1l62.4,36l62.4-36
		l-62.4-36L100.2,227.1z"/>
	<g>
		<g>
			<g>
				<g>
					<g>
						<g>
							<polygon class="st2" points="162.6,255 113.9,226.8 162.6,198.7 211.3,226.8 							"/>
							<polygon class="st2" points="162.6,246.9 113.9,218.8 162.6,190.6 211.3,218.8 							"/>
							<g class="st3">
								<linearGradient id="SVGID_29_" gradientUnits="userSpaceOnUse" x1="258.3796" y1="194.9215" x2="118.2936" y2="166.1084">
									<stop  offset="0" style="stop-color:#180D5B"/>
									<stop  offset="9.497968e-02" style="stop-color:#1A1660"/>
									<stop  offset="0.2466" style="stop-color:#1E2D6E"/>
									<stop  offset="0.436" style="stop-color:#255385"/>
									<stop  offset="0.6555" style="stop-color:#2F87A5"/>
									<stop  offset="0.8978" style="stop-color:#3CCACE"/>
									<stop  offset="1" style="stop-color:#42E8E0"/>
								</linearGradient>
								<polygon class="st42" points="162.6,196.9 125,175.2 162.6,153.5 200.2,175.2 								"/>
								<linearGradient id="SVGID_30_" gradientUnits="userSpaceOnUse" x1="215.739" y1="230.1662" x2="120.5767" y2="168.3574">
									<stop  offset="0" style="stop-color:#180D5B"/>
									<stop  offset="9.497968e-02" style="stop-color:#1A1660"/>
									<stop  offset="0.2466" style="stop-color:#1E2D6E"/>
									<stop  offset="0.436" style="stop-color:#255385"/>
									<stop  offset="0.6555" style="stop-color:#2F87A5"/>
									<stop  offset="0.8978" style="stop-color:#3CCACE"/>
									<stop  offset="1" style="stop-color:#42E8E0"/>
								</linearGradient>
								<polygon class="st43" points="200.2,175.2 200.2,218.8 162.6,240.5 162.6,196.9 								"/>
								
									<linearGradient id="SVGID_31_" gradientUnits="userSpaceOnUse" x1="-363.3659" y1="232.0088" x2="-286.4002" y2="190.9637" gradientTransform="matrix(-1 0 0 1 -174.287 0)">
									<stop  offset="0" style="stop-color:#180D5B"/>
									<stop  offset="9.497968e-02" style="stop-color:#1A1660"/>
									<stop  offset="0.2466" style="stop-color:#1E2D6E"/>
									<stop  offset="0.436" style="stop-color:#255385"/>
									<stop  offset="0.6555" style="stop-color:#2F87A5"/>
									<stop  offset="0.8978" style="stop-color:#3CCACE"/>
									<stop  offset="1" style="stop-color:#42E8E0"/>
								</linearGradient>
								<polygon class="st44" points="125,175.2 125,218.8 162.6,240.5 162.6,196.9 								"/>
							</g>
							<linearGradient id="SVGID_32_" gradientUnits="userSpaceOnUse" x1="227.0408" y1="254.1183" x2="126.9242" y2="199.2129">
								<stop  offset="0" style="stop-color:#180D5B"/>
								<stop  offset="9.497968e-02" style="stop-color:#1A1660"/>
								<stop  offset="0.2466" style="stop-color:#1E2D6E"/>
								<stop  offset="0.436" style="stop-color:#255385"/>
								<stop  offset="0.6555" style="stop-color:#2F87A5"/>
								<stop  offset="0.8978" style="stop-color:#3CCACE"/>
								<stop  offset="1" style="stop-color:#42E8E0"/>
							</linearGradient>
							<polygon class="st45" points="162.6,240.5 125,218.8 162.6,197 200.2,218.8 							"/>
							<linearGradient id="SVGID_33_" gradientUnits="userSpaceOnUse" x1="146.377" y1="236.8651" x2="216.0057" y2="236.8651">
								<stop  offset="0" style="stop-color:#2B237C"/>
								<stop  offset="1" style="stop-color:#180D5B"/>
							</linearGradient>
							<polygon class="st46" points="211.3,218.8 211.3,226.8 162.6,255 162.6,246.9 							"/>
							<polygon class="st2" points="113.9,218.8 113.9,226.8 162.6,255 162.6,246.9 							"/>
							<linearGradient id="SVGID_34_" gradientUnits="userSpaceOnUse" x1="167.6627" y1="253.6054" x2="104.2466" y2="217.5552">
								<stop  offset="0" style="stop-color:#180D5B"/>
								<stop  offset="9.513371e-02" style="stop-color:#1A1560"/>
								<stop  offset="0.2465" style="stop-color:#1E2D6E"/>
								<stop  offset="0.2819" style="stop-color:#1F3372"/>
								<stop  offset="0.3779" style="stop-color:#22447C"/>
								<stop  offset="0.5681" style="stop-color:#2B7097"/>
								<stop  offset="0.832" style="stop-color:#39B7C2"/>
								<stop  offset="1" style="stop-color:#42E8E0"/>
							</linearGradient>
							<polygon class="st47" points="113.9,218.8 113.9,226.8 162.6,255 162.6,246.9 							"/>
							<polygon class="st2" points="162.6,187.3 113.9,159.2 162.6,131.1 211.3,159.2 							"/>
							<polygon class="st2" points="113.9,151.1 113.9,159.2 162.6,187.3 162.6,179.3 							"/>
							<polygon class="st10" points="162.6,187.3 162.6,246.9 113.9,218.8 113.9,159.2 							"/>
							<g>
								<polygon class="st10" points="125,165.6 125,218.8 162.6,240.5 200.2,218.8 200.2,165.6 162.6,187.3 								"/>
								<polygon class="st10" points="162.6,187.3 162.6,240.5 125,218.8 125,165.6 								"/>
							</g>
							<polygon class="st11" points="113.9,159.2 113.9,218.8 162.6,246.9 211.3,218.8 211.3,159.2 162.6,187.3 							"/>
							<g>
								<polygon class="st2" points="162.6,179.3 113.9,151.1 162.6,123 211.3,151.1 								"/>
								<linearGradient id="SVGID_35_" gradientUnits="userSpaceOnUse" x1="195.0425" y1="172.2271" x2="113.3492" y2="119.1665">
									<stop  offset="0" style="stop-color:#180D5B"/>
									<stop  offset="9.497968e-02" style="stop-color:#1A1660"/>
									<stop  offset="0.2466" style="stop-color:#1E2D6E"/>
									<stop  offset="0.436" style="stop-color:#255385"/>
									<stop  offset="0.6555" style="stop-color:#2F87A5"/>
									<stop  offset="0.8978" style="stop-color:#3CCACE"/>
									<stop  offset="1" style="stop-color:#42E8E0"/>
								</linearGradient>
								<polygon class="st48" points="162.6,179.3 113.9,151.1 162.6,123 211.3,151.1 								"/>
								<linearGradient id="SVGID_36_" gradientUnits="userSpaceOnUse" x1="146.377" y1="169.2391" x2="216.0057" y2="169.2391">
									<stop  offset="0" style="stop-color:#2B237C"/>
									<stop  offset="1" style="stop-color:#180D5B"/>
								</linearGradient>
								<polygon class="st49" points="211.3,151.1 211.3,159.2 162.6,187.3 162.6,179.3 								"/>
								<linearGradient id="SVGID_37_" gradientUnits="userSpaceOnUse" x1="159.5495" y1="181.2676" x2="102.4784" y2="149.0909">
									<stop  offset="0" style="stop-color:#180D5B"/>
									<stop  offset="9.513371e-02" style="stop-color:#1A1560"/>
									<stop  offset="0.2465" style="stop-color:#1E2D6E"/>
									<stop  offset="0.2819" style="stop-color:#1F3372"/>
									<stop  offset="0.3779" style="stop-color:#22447C"/>
									<stop  offset="0.5681" style="stop-color:#2B7097"/>
									<stop  offset="0.832" style="stop-color:#39B7C2"/>
									<stop  offset="1" style="stop-color:#42E8E0"/>
								</linearGradient>
								<polygon class="st50" points="113.9,151.1 113.9,159.2 162.6,187.3 162.6,179.3 								"/>
								<linearGradient id="SVGID_38_" gradientUnits="userSpaceOnUse" x1="178.8001" y1="154.7997" x2="113.1227" y2="139.9685">
									<stop  offset="0" style="stop-color:#180D5B"/>
									<stop  offset="9.497968e-02" style="stop-color:#1A1660"/>
									<stop  offset="0.2466" style="stop-color:#1E2D6E"/>
									<stop  offset="0.436" style="stop-color:#255385"/>
									<stop  offset="0.6555" style="stop-color:#2F87A5"/>
									<stop  offset="0.8978" style="stop-color:#3CCACE"/>
									<stop  offset="1" style="stop-color:#42E8E0"/>
								</linearGradient>
								<polygon class="st51" points="115,151.1 163.1,123.3 162.6,123 113.9,151.1 162.6,179.3 163.1,178.9 								"/>
							</g>
							<g>
								<polygon class="st2" points="162.6,176.6 118.3,151 162.6,130.9 206.8,151 								"/>
								<polygon class="st2" points="118.3,149.1 118.3,151 162.6,176.6 162.6,174.7 								"/>
								<g>
									<polygon class="st2" points="162.6,174.7 118.3,149.1 162.6,123.6 206.8,149.1 									"/>
									<linearGradient id="SVGID_39_" gradientUnits="userSpaceOnUse" x1="192.0687" y1="168.2705" x2="117.8562" y2="120.0688">
										<stop  offset="0" style="stop-color:#180D5B"/>
										<stop  offset="9.497968e-02" style="stop-color:#1A1660"/>
										<stop  offset="0.2466" style="stop-color:#1E2D6E"/>
										<stop  offset="0.436" style="stop-color:#255385"/>
										<stop  offset="0.6555" style="stop-color:#2F87A5"/>
										<stop  offset="0.8978" style="stop-color:#3CCACE"/>
										<stop  offset="1" style="stop-color:#42E8E0"/>
									</linearGradient>
									<polygon class="st52" points="162.6,174.7 118.3,149.1 162.6,123.6 206.8,149.1 									"/>
									<linearGradient id="SVGID_40_" gradientUnits="userSpaceOnUse" x1="147.8595" y1="162.8509" x2="211.1122" y2="162.8509">
										<stop  offset="0" style="stop-color:#2B237C"/>
										<stop  offset="1" style="stop-color:#180D5B"/>
									</linearGradient>
									<polygon class="st53" points="206.8,149.1 206.8,151 162.6,176.6 162.6,174.7 									"/>
									<linearGradient id="SVGID_41_" gradientUnits="userSpaceOnUse" x1="158.8842" y1="173.247" x2="109.5579" y2="145.4368">
										<stop  offset="0" style="stop-color:#180D5B"/>
										<stop  offset="9.513371e-02" style="stop-color:#1A1560"/>
										<stop  offset="0.2465" style="stop-color:#1E2D6E"/>
										<stop  offset="0.2819" style="stop-color:#1F3372"/>
										<stop  offset="0.3779" style="stop-color:#22447C"/>
										<stop  offset="0.5681" style="stop-color:#2B7097"/>
										<stop  offset="0.832" style="stop-color:#39B7C2"/>
										<stop  offset="1" style="stop-color:#42E8E0"/>
									</linearGradient>
									<polygon class="st54" points="118.3,149.1 118.3,151 162.6,176.6 162.6,174.7 									"/>
									<linearGradient id="SVGID_42_" gradientUnits="userSpaceOnUse" x1="177.3136" y1="152.439" x2="117.6505" y2="138.9659">
										<stop  offset="0" style="stop-color:#180D5B"/>
										<stop  offset="9.497968e-02" style="stop-color:#1A1660"/>
										<stop  offset="0.2466" style="stop-color:#1E2D6E"/>
										<stop  offset="0.436" style="stop-color:#255385"/>
										<stop  offset="0.6555" style="stop-color:#2F87A5"/>
										<stop  offset="0.8978" style="stop-color:#3CCACE"/>
										<stop  offset="1" style="stop-color:#42E8E0"/>
									</linearGradient>
									<polygon class="st55" points="119.4,149.1 163.1,123.9 162.6,123.6 118.3,149.1 162.6,174.7 163.1,174.4 									"/>
								</g>
							</g>
							<g>
								<polygon class="st0" points="132.5,150.1 130.8,149.1 162.6,130.8 164.2,131.7 								"/>
								<polygon class="st0" points="135.8,152 134.2,151 165.9,132.7 167.6,133.7 								"/>
								<polygon class="st0" points="139.2,153.9 137.5,153 169.3,134.6 170.9,135.6 								"/>
								<polygon class="st0" points="142.5,155.9 140.8,154.9 172.6,136.6 174.3,137.5 								"/>
								<polygon class="st0" points="145.9,157.8 144.2,156.8 175.9,138.5 177.6,139.5 								"/>
								<polygon class="st0" points="149.2,159.7 147.5,158.8 179.3,140.4 180.9,141.4 								"/>
								<polygon class="st0" points="152.5,161.6 150.9,160.7 182.6,142.4 184.3,143.3 								"/>
								<polygon class="st0" points="155.9,163.6 154.2,162.6 186,144.3 187.6,145.3 								"/>
								<polygon class="st0" points="159.2,165.5 157.6,164.5 189.3,146.2 191,147.2 								"/>
								<polygon class="st0" points="162.6,167.4 160.9,166.5 192.6,148.1 194.3,149.1 								"/>
							</g>
							<polygon class="st20" points="162.6,130.8 164.2,131.7 162.6,132.7 							"/>
							<polygon class="st20" points="165.9,132.7 167.6,133.7 165.9,134.6 							"/>
							<polygon class="st20" points="169.3,134.6 170.9,135.6 169.3,136.6 							"/>
							<polygon class="st20" points="172.6,136.6 174.3,137.5 172.6,138.5 							"/>
							<polygon class="st20" points="175.9,138.5 177.6,139.5 175.9,140.4 							"/>
							<polygon class="st20" points="179.3,140.4 180.9,141.4 179.3,142.4 							"/>
							<polygon class="st20" points="182.6,142.4 184.3,143.3 182.6,144.3 							"/>
							<polygon class="st20" points="186,144.3 187.6,145.3 186,146.2 							"/>
							<polygon class="st20" points="189.3,146.2 191,147.2 189.3,148.1 							"/>
							<polygon class="st20" points="192.6,148.1 194.3,149.1 192.6,150.1 							"/>
							<g class="st21">
								<polygon class="st22" points="132.5,150.1 130.8,149.1 162.6,130.8 164.2,131.7 								"/>
								<polygon class="st22" points="135.8,152 134.2,151 165.9,132.7 167.6,133.7 								"/>
								<polygon class="st22" points="139.2,153.9 137.5,153 169.3,134.6 170.9,135.6 								"/>
								<polygon class="st22" points="142.5,155.9 140.8,154.9 172.6,136.6 174.3,137.5 								"/>
								<polygon class="st22" points="145.9,157.8 144.2,156.8 175.9,138.5 177.6,139.5 								"/>
								<polygon class="st22" points="149.2,159.7 147.5,158.8 179.3,140.4 180.9,141.4 								"/>
								<polygon class="st22" points="152.5,161.6 150.9,160.7 182.6,142.4 184.3,143.3 								"/>
								<polygon class="st22" points="155.9,163.6 154.2,162.6 186,144.3 187.6,145.3 								"/>
								<polygon class="st22" points="159.2,165.5 157.6,164.5 189.3,146.2 191,147.2 								"/>
								<polygon class="st22" points="162.6,167.4 160.9,166.5 192.6,148.1 194.3,149.1 								"/>
							</g>
						</g>
						<polygon class="st23" points="113.9,159.2 113.9,218.8 114.5,219.1 114.5,159.6 						"/>
						<polygon class="st23" points="211.3,159.2 211.3,218.8 210.6,219.1 210.6,159.6 						"/>
						<polygon class="st23" points="162.6,187.3 162.6,187.3 161.4,186.7 161.4,246.2 162.6,246.9 162.6,246.9 162.6,246.9 
							162.6,246.9 162.6,246.9 163.7,246.2 163.7,186.7 						"/>
					</g>
				</g>
				<polygon class="st11" points="114.5,212.9 158.8,185.2 127.2,166.9 114.5,173.9 				"/>
				<polygon class="st11" points="124.5,224.9 161.4,203.9 161.4,219.1 137,232.1 				"/>
			</g>
			<g class="st24">
				<polygon class="st25" points="116.9,166.6 158.9,190.8 158.9,188.9 116.9,164.7 				"/>
				<polygon class="st25" points="116.9,171 158.9,195.2 158.9,193.3 116.9,169.1 				"/>
				<polygon class="st25" points="116.9,175.4 158.9,199.7 158.9,197.8 116.9,173.5 				"/>
				<polygon class="st25" points="116.9,179.9 158.9,204.1 158.9,202.2 116.9,178 				"/>
				<polygon class="st25" points="116.9,184.3 158.9,208.6 158.9,206.7 116.9,182.4 				"/>
				<polygon class="st25" points="116.9,188.8 158.9,213 158.9,211.1 116.9,186.9 				"/>
				<polygon class="st25" points="116.9,193.2 158.9,217.5 158.9,215.6 116.9,191.3 				"/>
				<polygon class="st25" points="116.9,197.7 158.9,221.9 158.9,220 116.9,195.8 				"/>
				<polygon class="st25" points="116.9,202.1 158.9,226.4 158.9,224.5 116.9,200.2 				"/>
				<polygon class="st25" points="116.9,206.6 158.9,230.8 158.9,228.9 116.9,204.7 				"/>
				<polygon class="st25" points="116.9,211 158.9,235.2 158.9,233.4 116.9,209.1 				"/>
				<polygon class="st25" points="116.9,215.5 158.9,239.7 158.9,237.8 116.9,213.6 				"/>
			</g>
			<g>
				<path class="st56" d="M191.8,154.1c0.5,0.3,0.5,0.7,0,1c-0.5,0.3-1.3,0.3-1.7,0c-0.5-0.3-0.5-0.7,0-1
					C190.5,153.8,191.3,153.8,191.8,154.1z"/>
				<path class="st56" d="M194.5,152.5c0.5,0.3,0.5,0.7,0,1c-0.5,0.3-1.3,0.3-1.7,0c-0.5-0.3-0.5-0.7,0-1
					C193.3,152.2,194,152.2,194.5,152.5z"/>
				<path class="st56" d="M197.3,150.9c0.5,0.3,0.5,0.7,0,1c-0.5,0.3-1.3,0.3-1.7,0c-0.5-0.3-0.5-0.7,0-1
					C196,150.7,196.8,150.7,197.3,150.9z"/>
			</g>
			<g>
				<g>
					<g>
						<path class="st40" d="M167.1,189.5c0,0.5-0.4,1.2-0.8,1.4c-0.5,0.3-0.8,0-0.8-0.5s0.4-1.2,0.8-1.4
							C166.8,188.8,167.1,189,167.1,189.5z"/>
						<path class="st40" d="M169.8,188c0,0.5-0.4,1.2-0.8,1.4c-0.5,0.3-0.8,0-0.8-0.5c0-0.5,0.4-1.2,0.8-1.4
							C169.5,187.2,169.8,187.4,169.8,188z"/>
						<path class="st40" d="M172.5,186.4c0,0.5-0.4,1.2-0.8,1.4c-0.5,0.3-0.8,0-0.8-0.5s0.4-1.2,0.8-1.4
							C172.2,185.7,172.5,185.9,172.5,186.4z"/>
						<polygon class="st40" points="194.4,174.7 173.8,186.6 173.8,184.7 194.4,172.8 						"/>
					</g>
					<g>
						<path class="st40" d="M167.1,194c0,0.5-0.4,1.2-0.8,1.4c-0.5,0.3-0.8,0-0.8-0.5c0-0.5,0.4-1.2,0.8-1.4
							C166.8,193.2,167.1,193.4,167.1,194z"/>
						<path class="st40" d="M169.8,192.4c0,0.5-0.4,1.2-0.8,1.4c-0.5,0.3-0.8,0-0.8-0.5c0-0.5,0.4-1.2,0.8-1.4
							C169.5,191.7,169.8,191.9,169.8,192.4z"/>
						<path class="st40" d="M172.5,190.9c0,0.5-0.4,1.2-0.8,1.4c-0.5,0.3-0.8,0-0.8-0.5c0-0.5,0.4-1.2,0.8-1.4
							C172.2,190.1,172.5,190.3,172.5,190.9z"/>
						<polygon class="st40" points="194.4,179.1 173.8,191.1 173.8,189.2 194.4,177.3 						"/>
					</g>
					<g>
						<path class="st40" d="M167.1,198.4c0,0.5-0.4,1.2-0.8,1.4c-0.5,0.3-0.8,0-0.8-0.5c0-0.5,0.4-1.2,0.8-1.4
							C166.8,197.7,167.1,197.9,167.1,198.4z"/>
						<path class="st40" d="M169.8,196.9c0,0.5-0.4,1.2-0.8,1.4c-0.5,0.3-0.8,0-0.8-0.5c0-0.5,0.4-1.2,0.8-1.4
							C169.5,196.1,169.8,196.3,169.8,196.9z"/>
						<path class="st40" d="M172.5,195.3c0,0.5-0.4,1.2-0.8,1.4c-0.5,0.3-0.8,0-0.8-0.5c0-0.5,0.4-1.2,0.8-1.4
							C172.2,194.6,172.5,194.8,172.5,195.3z"/>
						<polygon class="st40" points="194.4,183.6 173.8,195.5 173.8,193.6 194.4,181.7 						"/>
					</g>
					<g>
						<path class="st40" d="M167.1,202.9c0,0.5-0.4,1.2-0.8,1.4c-0.5,0.3-0.8,0-0.8-0.5c0-0.5,0.4-1.2,0.8-1.4
							C166.8,202.1,167.1,202.3,167.1,202.9z"/>
						<path class="st40" d="M169.8,201.3c0,0.5-0.4,1.2-0.8,1.4c-0.5,0.3-0.8,0-0.8-0.5c0-0.5,0.4-1.2,0.8-1.4
							C169.5,200.6,169.8,200.8,169.8,201.3z"/>
						<path class="st40" d="M172.5,199.7c0,0.5-0.4,1.2-0.8,1.4c-0.5,0.3-0.8,0-0.8-0.5c0-0.5,0.4-1.2,0.8-1.4
							C172.2,199,172.5,199.2,172.5,199.7z"/>
						<polygon class="st40" points="194.4,188 173.8,200 173.8,198.1 194.4,186.1 						"/>
					</g>
					<g>
						<path class="st40" d="M167.1,207.3c0,0.5-0.4,1.2-0.8,1.4c-0.5,0.3-0.8,0-0.8-0.5c0-0.5,0.4-1.2,0.8-1.4
							C166.8,206.6,167.1,206.8,167.1,207.3z"/>
						<path class="st40" d="M169.8,205.7c0,0.5-0.4,1.2-0.8,1.4c-0.5,0.3-0.8,0-0.8-0.5c0-0.5,0.4-1.2,0.8-1.4
							C169.5,205,169.8,205.2,169.8,205.7z"/>
						<path class="st40" d="M172.5,204.2c0,0.5-0.4,1.2-0.8,1.4c-0.5,0.3-0.8,0-0.8-0.5c0-0.5,0.4-1.2,0.8-1.4
							C172.2,203.5,172.5,203.7,172.5,204.2z"/>
						<polygon class="st40" points="194.4,192.5 173.8,204.4 173.8,202.5 194.4,190.6 						"/>
					</g>
					<g>
						<path class="st40" d="M167.1,211.8c0,0.5-0.4,1.2-0.8,1.4c-0.5,0.3-0.8,0-0.8-0.5c0-0.5,0.4-1.2,0.8-1.4
							C166.8,211,167.1,211.2,167.1,211.8z"/>
						<path class="st40" d="M169.8,210.2c0,0.5-0.4,1.2-0.8,1.4c-0.5,0.3-0.8,0-0.8-0.5c0-0.5,0.4-1.2,0.8-1.4
							C169.5,209.5,169.8,209.7,169.8,210.2z"/>
						<path class="st40" d="M172.5,208.6c0,0.5-0.4,1.2-0.8,1.4c-0.5,0.3-0.8,0-0.8-0.5c0-0.5,0.4-1.2,0.8-1.4
							C172.2,207.9,172.5,208.1,172.5,208.6z"/>
						<polygon class="st40" points="194.4,196.9 173.8,208.9 173.8,207 194.4,195 						"/>
					</g>
					<g>
						<path class="st40" d="M167.1,216.2c0,0.5-0.4,1.2-0.8,1.4c-0.5,0.3-0.8,0-0.8-0.5c0-0.5,0.4-1.2,0.8-1.4
							C166.8,215.5,167.1,215.7,167.1,216.2z"/>
						<path class="st40" d="M169.8,214.6c0,0.5-0.4,1.2-0.8,1.4c-0.5,0.3-0.8,0-0.8-0.5c0-0.5,0.4-1.2,0.8-1.4
							C169.5,213.9,169.8,214.1,169.8,214.6z"/>
						<path class="st40" d="M172.5,213.1c0,0.5-0.4,1.2-0.8,1.4c-0.5,0.3-0.8,0-0.8-0.5c0-0.5,0.4-1.2,0.8-1.4
							C172.2,212.3,172.5,212.6,172.5,213.1z"/>
						<polygon class="st40" points="194.4,201.4 173.8,213.3 173.8,211.4 194.4,199.5 						"/>
					</g>
					<g>
						<path class="st40" d="M167.1,220.6c0,0.5-0.4,1.2-0.8,1.4c-0.5,0.3-0.8,0-0.8-0.5c0-0.5,0.4-1.2,0.8-1.4
							C166.8,219.9,167.1,220.1,167.1,220.6z"/>
						<path class="st40" d="M169.8,219.1c0,0.5-0.4,1.2-0.8,1.4c-0.5,0.3-0.8,0-0.8-0.5c0-0.5,0.4-1.2,0.8-1.4
							C169.5,218.4,169.8,218.6,169.8,219.1z"/>
						<path class="st40" d="M172.5,217.5c0,0.5-0.4,1.2-0.8,1.4c-0.5,0.3-0.8,0-0.8-0.5c0-0.5,0.4-1.2,0.8-1.4
							C172.2,216.8,172.5,217,172.5,217.5z"/>
						<polygon class="st40" points="194.4,205.8 173.8,217.8 173.8,215.9 194.4,203.9 						"/>
					</g>
					<g>
						<path class="st40" d="M167.1,225.1c0,0.5-0.4,1.2-0.8,1.4c-0.5,0.3-0.8,0-0.8-0.5s0.4-1.2,0.8-1.4
							C166.8,224.4,167.1,224.6,167.1,225.1z"/>
						<path class="st40" d="M169.8,223.5c0,0.5-0.4,1.2-0.8,1.4c-0.5,0.3-0.8,0-0.8-0.5s0.4-1.2,0.8-1.4
							C169.5,222.8,169.8,223,169.8,223.5z"/>
						<path class="st40" d="M172.5,222c0,0.5-0.4,1.2-0.8,1.4c-0.5,0.3-0.8,0-0.8-0.5c0-0.5,0.4-1.2,0.8-1.4
							C172.2,221.2,172.5,221.5,172.5,222z"/>
						<polygon class="st40" points="194.4,210.3 173.8,222.2 173.8,220.3 194.4,208.4 						"/>
					</g>
					<g>
						<path class="st40" d="M167.1,229.5c0,0.5-0.4,1.2-0.8,1.4c-0.5,0.3-0.8,0-0.8-0.5c0-0.5,0.4-1.2,0.8-1.4
							C166.8,228.8,167.1,229,167.1,229.5z"/>
						<path class="st40" d="M169.8,228c0,0.5-0.4,1.2-0.8,1.4c-0.5,0.3-0.8,0-0.8-0.5c0-0.5,0.4-1.2,0.8-1.4
							C169.5,227.2,169.8,227.5,169.8,228z"/>
						<path class="st40" d="M172.5,226.4c0,0.5-0.4,1.2-0.8,1.4c-0.5,0.3-0.8,0-0.8-0.5c0-0.5,0.4-1.2,0.8-1.4
							C172.2,225.7,172.5,225.9,172.5,226.4z"/>
						<polygon class="st40" points="194.4,214.7 173.8,226.7 173.8,224.8 194.4,212.8 						"/>
					</g>
					<g>
						<path class="st40" d="M167.1,234c0,0.5-0.4,1.2-0.8,1.4c-0.5,0.3-0.8,0-0.8-0.5c0-0.5,0.4-1.2,0.8-1.4
							C166.8,233.3,167.1,233.5,167.1,234z"/>
						<path class="st40" d="M169.8,232.4c0,0.5-0.4,1.2-0.8,1.4c-0.5,0.3-0.8,0-0.8-0.5c0-0.5,0.4-1.2,0.8-1.4
							C169.5,231.7,169.8,231.9,169.8,232.4z"/>
						<path class="st40" d="M172.5,230.9c0,0.5-0.4,1.2-0.8,1.4c-0.5,0.3-0.8,0-0.8-0.5c0-0.5,0.4-1.2,0.8-1.4
							C172.2,230.1,172.5,230.3,172.5,230.9z"/>
						<polygon class="st40" points="194.4,219.2 173.8,231.1 173.8,229.2 194.4,217.3 						"/>
					</g>
					<g>
						<path class="st40" d="M167.1,238.4c0,0.5-0.4,1.2-0.8,1.4c-0.5,0.3-0.8,0-0.8-0.5s0.4-1.2,0.8-1.4
							C166.8,237.7,167.1,237.9,167.1,238.4z"/>
						<path class="st40" d="M169.8,236.9c0,0.5-0.4,1.2-0.8,1.4c-0.5,0.3-0.8,0-0.8-0.5c0-0.5,0.4-1.2,0.8-1.4
							C169.5,236.1,169.8,236.4,169.8,236.9z"/>
						<path class="st40" d="M172.5,235.3c0,0.5-0.4,1.2-0.8,1.4c-0.5,0.3-0.8,0-0.8-0.5c0-0.5,0.4-1.2,0.8-1.4
							C172.2,234.6,172.5,234.8,172.5,235.3z"/>
						<polygon class="st40" points="194.4,223.6 173.8,235.5 173.8,233.7 194.4,221.7 						"/>
					</g>
				</g>
				<polygon class="st41" points="208.5,215.6 196.4,222.6 196.4,171.9 208.5,164.9 				"/>
			</g>
		</g>
		<linearGradient id="SVGID_43_" gradientUnits="userSpaceOnUse" x1="196.3783" y1="152.1572" x2="196.3783" y2="63.753">
			<stop  offset="0" style="stop-color:#FCCC6B"/>
			<stop  offset="5.346197e-02" style="stop-color:#E5B86B"/>
			<stop  offset="0.185" style="stop-color:#B28D6B"/>
			<stop  offset="0.3191" style="stop-color:#87676A"/>
			<stop  offset="0.4536" style="stop-color:#63486A"/>
			<stop  offset="0.5884" style="stop-color:#47306A"/>
			<stop  offset="0.7239" style="stop-color:#34206A"/>
			<stop  offset="0.8605" style="stop-color:#28156A"/>
			<stop  offset="1" style="stop-color:#24126A"/>
		</linearGradient>
		<path class="st57" d="M195.1,63.8v87.7l0,0c0,0.2,0.1,0.4,0.4,0.5c0.5,0.3,1.3,0.3,1.7,0c0.2-0.1,0.4-0.3,0.4-0.5V63.8H195.1z"/>
	</g>
	<g>
		<g>
			<g>
				<path class="st40" d="M282.9,122.5c0,0.5-0.4,1.2-0.8,1.4c-0.5,0.3-0.8,0-0.8-0.5c0-0.5,0.4-1.2,0.8-1.4
					C282.6,121.8,282.9,122,282.9,122.5z"/>
				<path class="st40" d="M285.6,120.9c0,0.5-0.4,1.2-0.8,1.4c-0.5,0.3-0.8,0-0.8-0.5c0-0.5,0.4-1.2,0.8-1.4
					C285.3,120.2,285.6,120.4,285.6,120.9z"/>
				<path class="st40" d="M288.3,119.4c0,0.5-0.4,1.2-0.8,1.4c-0.5,0.3-0.8,0-0.8-0.5c0-0.5,0.4-1.2,0.8-1.4
					C288,118.6,288.3,118.9,288.3,119.4z"/>
				<polygon class="st40" points="310.2,107.7 289.6,119.6 289.6,117.7 310.2,105.8 				"/>
			</g>
			<g>
				<path class="st40" d="M282.9,126.9c0,0.5-0.4,1.2-0.8,1.4c-0.5,0.3-0.8,0-0.8-0.5s0.4-1.2,0.8-1.4
					C282.6,126.2,282.9,126.4,282.9,126.9z"/>
				<path class="st40" d="M285.6,125.4c0,0.5-0.4,1.2-0.8,1.4c-0.5,0.3-0.8,0-0.8-0.5c0-0.5,0.4-1.2,0.8-1.4
					C285.3,124.6,285.6,124.9,285.6,125.4z"/>
				<path class="st40" d="M288.3,123.8c0,0.5-0.4,1.2-0.8,1.4c-0.5,0.3-0.8,0-0.8-0.5s0.4-1.2,0.8-1.4
					C288,123.1,288.3,123.3,288.3,123.8z"/>
				<polygon class="st40" points="310.2,112.1 289.6,124.1 289.6,122.2 310.2,110.2 				"/>
			</g>
			<g>
				<path class="st40" d="M282.9,131.4c0,0.5-0.4,1.2-0.8,1.4c-0.5,0.3-0.8,0-0.8-0.5c0-0.5,0.4-1.2,0.8-1.4
					C282.6,130.7,282.9,130.9,282.9,131.4z"/>
				<path class="st40" d="M285.6,129.8c0,0.5-0.4,1.2-0.8,1.4c-0.5,0.3-0.8,0-0.8-0.5c0-0.5,0.4-1.2,0.8-1.4
					C285.3,129.1,285.6,129.3,285.6,129.8z"/>
				<path class="st40" d="M288.3,128.3c0,0.5-0.4,1.2-0.8,1.4c-0.5,0.3-0.8,0-0.8-0.5c0-0.5,0.4-1.2,0.8-1.4
					C288,127.5,288.3,127.7,288.3,128.3z"/>
				<polygon class="st40" points="310.2,116.6 289.6,128.5 289.6,126.6 310.2,114.7 				"/>
			</g>
			<g>
				<path class="st40" d="M282.9,135.8c0,0.5-0.4,1.2-0.8,1.4c-0.5,0.3-0.8,0-0.8-0.5c0-0.5,0.4-1.2,0.8-1.4
					C282.6,135.1,282.9,135.3,282.9,135.8z"/>
				<path class="st40" d="M285.6,134.3c0,0.5-0.4,1.2-0.8,1.4c-0.5,0.3-0.8,0-0.8-0.5c0-0.5,0.4-1.2,0.8-1.4
					C285.3,133.5,285.6,133.8,285.6,134.3z"/>
				<path class="st40" d="M288.3,132.7c0,0.5-0.4,1.2-0.8,1.4c-0.5,0.3-0.8,0-0.8-0.5c0-0.5,0.4-1.2,0.8-1.4
					C288,132,288.3,132.2,288.3,132.7z"/>
				<polygon class="st40" points="310.2,121 289.6,132.9 289.6,131.1 310.2,119.1 				"/>
			</g>
			<g>
				<path class="st40" d="M282.9,140.3c0,0.5-0.4,1.2-0.8,1.4c-0.5,0.3-0.8,0-0.8-0.5s0.4-1.2,0.8-1.4
					C282.6,139.5,282.9,139.8,282.9,140.3z"/>
				<path class="st40" d="M285.6,138.7c0,0.5-0.4,1.2-0.8,1.4c-0.5,0.3-0.8,0-0.8-0.5c0-0.5,0.4-1.2,0.8-1.4
					C285.3,138,285.6,138.2,285.6,138.7z"/>
				<path class="st40" d="M288.3,137.2c0,0.5-0.4,1.2-0.8,1.4c-0.5,0.3-0.8,0-0.8-0.5c0-0.5,0.4-1.2,0.8-1.4
					C288,136.4,288.3,136.6,288.3,137.2z"/>
				<polygon class="st40" points="310.2,125.5 289.6,137.4 289.6,135.5 310.2,123.6 				"/>
			</g>
			<g>
				<path class="st40" d="M282.9,144.7c0,0.5-0.4,1.2-0.8,1.4c-0.5,0.3-0.8,0-0.8-0.5c0-0.5,0.4-1.2,0.8-1.4
					C282.6,144,282.9,144.2,282.9,144.7z"/>
				<path class="st40" d="M285.6,143.2c0,0.5-0.4,1.2-0.8,1.4c-0.5,0.3-0.8,0-0.8-0.5c0-0.5,0.4-1.2,0.8-1.4
					C285.3,142.4,285.6,142.6,285.6,143.2z"/>
				<path class="st40" d="M288.3,141.6c0,0.5-0.4,1.2-0.8,1.4c-0.5,0.3-0.8,0-0.8-0.5c0-0.5,0.4-1.2,0.8-1.4
					C288,140.9,288.3,141.1,288.3,141.6z"/>
				<polygon class="st40" points="310.2,129.9 289.6,141.8 289.6,139.9 310.2,128 				"/>
			</g>
			<g>
				<path class="st40" d="M282.9,149.2c0,0.5-0.4,1.2-0.8,1.4c-0.5,0.3-0.8,0-0.8-0.5c0-0.5,0.4-1.2,0.8-1.4
					C282.6,148.4,282.9,148.7,282.9,149.2z"/>
				<path class="st40" d="M285.6,147.6c0,0.5-0.4,1.2-0.8,1.4c-0.5,0.3-0.8,0-0.8-0.5c0-0.5,0.4-1.2,0.8-1.4
					C285.3,146.9,285.6,147.1,285.6,147.6z"/>
				<path class="st40" d="M288.3,146.1c0,0.5-0.4,1.2-0.8,1.4c-0.5,0.3-0.8,0-0.8-0.5c0-0.5,0.4-1.2,0.8-1.4
					C288,145.3,288.3,145.5,288.3,146.1z"/>
				<polygon class="st40" points="310.2,134.4 289.6,146.3 289.6,144.4 310.2,132.5 				"/>
			</g>
			<g>
				<path class="st40" d="M282.9,153.6c0,0.5-0.4,1.2-0.8,1.4c-0.5,0.3-0.8,0-0.8-0.5c0-0.5,0.4-1.2,0.8-1.4
					C282.6,152.9,282.9,153.1,282.9,153.6z"/>
				<path class="st40" d="M285.6,152.1c0,0.5-0.4,1.2-0.8,1.4c-0.5,0.3-0.8,0-0.8-0.5c0-0.5,0.4-1.2,0.8-1.4
					C285.3,151.3,285.6,151.5,285.6,152.1z"/>
				<path class="st40" d="M288.3,150.5c0,0.5-0.4,1.2-0.8,1.4c-0.5,0.3-0.8,0-0.8-0.5c0-0.5,0.4-1.2,0.8-1.4
					C288,149.8,288.3,150,288.3,150.5z"/>
				<polygon class="st40" points="310.2,138.8 289.6,150.7 289.6,148.8 310.2,136.9 				"/>
			</g>
			<g>
				<path class="st40" d="M282.9,158.1c0,0.5-0.4,1.2-0.8,1.4c-0.5,0.3-0.8,0-0.8-0.5c0-0.5,0.4-1.2,0.8-1.4
					C282.6,157.3,282.9,157.5,282.9,158.1z"/>
				<path class="st40" d="M285.6,156.5c0,0.5-0.4,1.2-0.8,1.4c-0.5,0.3-0.8,0-0.8-0.5c0-0.5,0.4-1.2,0.8-1.4
					C285.3,155.8,285.6,156,285.6,156.5z"/>
				<path class="st40" d="M288.3,155c0,0.5-0.4,1.2-0.8,1.4c-0.5,0.3-0.8,0-0.8-0.5c0-0.5,0.4-1.2,0.8-1.4
					C288,154.2,288.3,154.4,288.3,155z"/>
				<polygon class="st40" points="310.2,143.2 289.6,155.2 289.6,153.3 310.2,141.4 				"/>
			</g>
			<g>
				<path class="st40" d="M282.9,162.5c0,0.5-0.4,1.2-0.8,1.4c-0.5,0.3-0.8,0-0.8-0.5s0.4-1.2,0.8-1.4
					C282.6,161.8,282.9,162,282.9,162.5z"/>
				<path class="st40" d="M285.6,161c0,0.5-0.4,1.2-0.8,1.4c-0.5,0.3-0.8,0-0.8-0.5s0.4-1.2,0.8-1.4
					C285.3,160.2,285.6,160.4,285.6,161z"/>
				<path class="st40" d="M288.3,159.4c0,0.5-0.4,1.2-0.8,1.4c-0.5,0.3-0.8,0-0.8-0.5s0.4-1.2,0.8-1.4
					C288,158.7,288.3,158.9,288.3,159.4z"/>
				<polygon class="st40" points="310.2,147.7 289.6,159.6 289.6,157.7 310.2,145.8 				"/>
			</g>
			<g>
				<path class="st40" d="M282.9,167c0,0.5-0.4,1.2-0.8,1.4c-0.5,0.3-0.8,0-0.8-0.5c0-0.5,0.4-1.2,0.8-1.4
					C282.6,166.2,282.9,166.4,282.9,167z"/>
				<path class="st40" d="M285.6,165.4c0,0.5-0.4,1.2-0.8,1.4c-0.5,0.3-0.8,0-0.8-0.5c0-0.5,0.4-1.2,0.8-1.4
					C285.3,164.7,285.6,164.9,285.6,165.4z"/>
				<path class="st40" d="M288.3,163.8c0,0.5-0.4,1.2-0.8,1.4c-0.5,0.3-0.8,0-0.8-0.5c0-0.5,0.4-1.2,0.8-1.4
					C288,163.1,288.3,163.3,288.3,163.8z"/>
				<polygon class="st40" points="310.2,152.1 289.6,164.1 289.6,162.2 310.2,150.2 				"/>
			</g>
			<g>
				<path class="st40" d="M282.9,171.4c0,0.5-0.4,1.2-0.8,1.4c-0.5,0.3-0.8,0-0.8-0.5c0-0.5,0.4-1.2,0.8-1.4
					C282.6,170.7,282.9,170.9,282.9,171.4z"/>
				<path class="st40" d="M285.6,169.8c0,0.5-0.4,1.2-0.8,1.4c-0.5,0.3-0.8,0-0.8-0.5c0-0.5,0.4-1.2,0.8-1.4
					C285.3,169.1,285.6,169.3,285.6,169.8z"/>
				<path class="st40" d="M288.3,168.3c0,0.5-0.4,1.2-0.8,1.4c-0.5,0.3-0.8,0-0.8-0.5c0-0.5,0.4-1.2,0.8-1.4
					C288,167.6,288.3,167.8,288.3,168.3z"/>
				<polygon class="st40" points="310.2,156.6 289.6,168.5 289.6,166.6 310.2,154.7 				"/>
			</g>
		</g>
		<polygon class="st41" points="324.3,148.5 312.2,155.5 312.2,104.8 324.3,97.8 		"/>
	</g>
	<radialGradient id="SVGID_44_" cx="162.567" cy="167.5561" r="134.9777" gradientUnits="userSpaceOnUse">
		<stop  offset="0" style="stop-color:#42E8E0"/>
		<stop  offset="7.808566e-02" style="stop-color:#3BC5CB"/>
		<stop  offset="0.2005" style="stop-color:#3295AD"/>
		<stop  offset="0.3266" style="stop-color:#2A6B94"/>
		<stop  offset="0.454" style="stop-color:#23497F"/>
		<stop  offset="0.5834" style="stop-color:#1E2F6F"/>
		<stop  offset="0.7156" style="stop-color:#1B1C64"/>
		<stop  offset="0.8521" style="stop-color:#19115D"/>
		<stop  offset="1" style="stop-color:#180D5B"/>
	</radialGradient>
	<polygon class="st58" points="194.3,149.1 162.6,167.4 130.8,149.1 130.8,27 194.3,27 	"/>
	<radialGradient id="SVGID_45_" cx="162.567" cy="167.5787" r="134.978" gradientUnits="userSpaceOnUse">
		<stop  offset="0" style="stop-color:#42E8E0"/>
		<stop  offset="7.808566e-02" style="stop-color:#3BC5CB"/>
		<stop  offset="0.2005" style="stop-color:#3295AD"/>
		<stop  offset="0.3266" style="stop-color:#2A6B94"/>
		<stop  offset="0.454" style="stop-color:#23497F"/>
		<stop  offset="0.5834" style="stop-color:#1E2F6F"/>
		<stop  offset="0.7156" style="stop-color:#1B1C64"/>
		<stop  offset="0.8521" style="stop-color:#19115D"/>
		<stop  offset="1" style="stop-color:#180D5B"/>
	</radialGradient>
	<polygon class="st59" points="194.3,149.1 162.6,167.4 130.8,149.1 146.8,0 178.5,0 	"/>
	<g>
		<g>
			<path class="st40" d="M211.2,254.1c-0.1,0-0.1,0-0.2-0.1l-15.8-9.1c-0.2-0.1-0.3-0.4-0.1-0.5c0.1-0.2,0.4-0.3,0.5-0.1l15.8,9.1
				c0.2,0.1,0.3,0.4,0.1,0.5C211.5,254,211.4,254.1,211.2,254.1z"/>
			<g>
				<g>
					<path class="st1" d="M222.9,311.9l-28.2-16.3c-2.1-1.2-1.9-3.4,0.6-4.8l27-15.6c2.5-1.4,6.2-1.6,8.4-0.3l28.2,16.3
						c2.1,1.2,1.9,3.4-0.6,4.8l-27,15.6C228.8,313,225,313.2,222.9,311.9z"/>
					<path class="st2" d="M268.4,271.4v-6.5h-16.9l-19.9-11.5c-2.7-1.5-7.3-1.3-10.4,0.4L202,264.8h-16.9v6.9h0
						c-0.1,1,0.5,2,1.8,2.8l35,20.2c2.7,1.5,7.3,1.3,10.4-0.4l33.5-19.4C267.6,273.9,268.5,272.6,268.4,271.4z"/>
					<linearGradient id="SVGID_46_" gradientUnits="userSpaceOnUse" x1="166.7055" y1="274.0355" x2="249.983" y2="274.0355">
						<stop  offset="0" style="stop-color:#42E8E0"/>
						<stop  offset="0.1022" style="stop-color:#3CCACE"/>
						<stop  offset="0.3445" style="stop-color:#2F87A5"/>
						<stop  offset="0.564" style="stop-color:#255385"/>
						<stop  offset="0.7534" style="stop-color:#1E2D6E"/>
						<stop  offset="0.905" style="stop-color:#1A1660"/>
						<stop  offset="1" style="stop-color:#180D5B"/>
					</linearGradient>
					<path class="st60" d="M268.4,271.4v-6.5h-16.9l-19.9-11.5c-2.7-1.5-7.3-1.3-10.4,0.4L202,264.8h-16.9v6.9h0
						c-0.1,1,0.5,2,1.8,2.8l35,20.2c2.7,1.5,7.3,1.3,10.4-0.4l33.5-19.4C267.6,273.9,268.5,272.6,268.4,271.4z"/>
					<linearGradient id="SVGID_47_" gradientUnits="userSpaceOnUse" x1="226.7522" y1="274.0336" x2="268.391" y2="274.0336">
						<stop  offset="0" style="stop-color:#2B237C"/>
						<stop  offset="1" style="stop-color:#180D5B"/>
					</linearGradient>
					<path class="st61" d="M231.6,253.3c-1.3-0.7-3-1.1-4.8-1v43.5c1.9,0,4-0.5,5.6-1.5l33.5-19.4c1.8-1,2.6-2.3,2.5-3.6v-6.5h-16.9
						L231.6,253.3z"/>
					<path class="st2" d="M221.9,287.8l-35-20.2c-2.7-1.5-2.3-4.2,0.7-6l33.5-19.4c3.1-1.8,7.7-2,10.4-0.4l35,20.2
						c2.7,1.5,2.3,4.2-0.7,6l-33.5,19.4C229.2,289.2,224.6,289.4,221.9,287.8z"/>
					<linearGradient id="SVGID_48_" gradientUnits="userSpaceOnUse" x1="185.1135" y1="264.8357" x2="268.397" y2="264.8357">
						<stop  offset="0" style="stop-color:#42E8E0"/>
						<stop  offset="0.1022" style="stop-color:#3CCACE"/>
						<stop  offset="0.3445" style="stop-color:#2F87A5"/>
						<stop  offset="0.564" style="stop-color:#255385"/>
						<stop  offset="0.7534" style="stop-color:#1E2D6E"/>
						<stop  offset="0.905" style="stop-color:#1A1660"/>
						<stop  offset="1" style="stop-color:#180D5B"/>
					</linearGradient>
					<path class="st62" d="M221.9,287.8l-35-20.2c-2.7-1.5-2.3-4.2,0.7-6l33.5-19.4c3.1-1.8,7.7-2,10.4-0.4l35,20.2
						c2.7,1.5,2.3,4.2-0.7,6l-33.5,19.4C229.2,289.2,224.6,289.4,221.9,287.8z"/>
					<path class="st63" d="M222.9,283.4l-28.2-16.3c-2.1-1.2-1.9-3.4,0.6-4.8l27-15.6c2.5-1.4,6.2-1.6,8.4-0.3l28.2,16.3
						c2.1,1.2,1.9,3.4-0.6,4.8l-27,15.6C228.8,284.5,225,284.6,222.9,283.4z"/>
					<path class="st0" d="M195.3,264.4l27-15.6c2.5-1.4,6.2-1.6,8.4-0.3l28.2,16.3c0.5,0.3,0.9,0.7,1.1,1.1c0.6-1.1,0.3-2.4-1.1-3.2
						l-28.2-16.3c-2.1-1.2-5.9-1.1-8.4,0.3l-27,15.6c-1.9,1.1-2.5,2.6-1.7,3.8C193.8,265.4,194.4,264.8,195.3,264.4z"/>
					<linearGradient id="SVGID_49_" gradientUnits="userSpaceOnUse" x1="185.1135" y1="264.8369" x2="227.6195" y2="264.8369">
						<stop  offset="0" style="stop-color:#42E8E0"/>
						<stop  offset="0.1022" style="stop-color:#3CCACE"/>
						<stop  offset="0.3445" style="stop-color:#2F87A5"/>
						<stop  offset="0.564" style="stop-color:#255385"/>
						<stop  offset="0.7534" style="stop-color:#1E2D6E"/>
						<stop  offset="0.905" style="stop-color:#1A1660"/>
						<stop  offset="1" style="stop-color:#180D5B"/>
					</linearGradient>
					<path class="st64" d="M223.1,287.8l-35-20.2c-2.7-1.5-3.3-3.8,0.7-6l33.5-19.4c1.5-0.9,3.4-1.4,5.3-1.5
						c-2.2-0.1-4.6,0.4-6.4,1.5l-33.5,19.4c-3.1,1.8-3.4,4.5-0.7,6l35,20.2c1.4,0.8,3.2,1.1,5.1,1
						C225.6,288.8,224.2,288.5,223.1,287.8z"/>
					<linearGradient id="SVGID_50_" gradientUnits="userSpaceOnUse" x1="196.4409" y1="289.0695" x2="266.1489" y2="243.5067">
						<stop  offset="0" style="stop-color:#42E8E0"/>
						<stop  offset="0.1022" style="stop-color:#3CCACE"/>
						<stop  offset="0.3445" style="stop-color:#2F87A5"/>
						<stop  offset="0.564" style="stop-color:#255385"/>
						<stop  offset="0.7534" style="stop-color:#1E2D6E"/>
						<stop  offset="0.905" style="stop-color:#1A1660"/>
						<stop  offset="1" style="stop-color:#180D5B"/>
					</linearGradient>
					<path class="st65" d="M265.9,271l-33.5,19.4c-3.1,1.8-7.7,2-10.4,0.4l-35-20.2c-1.3-0.7-1.9-1.7-1.8-2.8h0v1.4h0
						c-0.1,1,0.5,2,1.8,2.8l35,20.2c2.7,1.5,7.3,1.3,10.4-0.4l33.5-19.4c1.8-1,2.6-2.3,2.5-3.6v-1.4
						C268.5,268.6,267.6,269.9,265.9,271z"/>
				</g>
				<g>
					<path class="st56" d="M259.8,269.1c0.4,0.2,0.4,0.6,0,0.8c-0.4,0.2-1,0.2-1.4,0s-0.4-0.6,0-0.8
						C258.8,268.8,259.4,268.8,259.8,269.1z"/>
					<path class="st56" d="M261.9,267.8c0.4,0.2,0.4,0.6,0,0.8c-0.4,0.2-1,0.2-1.4,0s-0.4-0.6,0-0.8
						C260.9,267.6,261.5,267.6,261.9,267.8z"/>
					<path class="st56" d="M264.1,266.6c0.4,0.2,0.4,0.6,0,0.8c-0.4,0.2-1,0.2-1.4,0c-0.4-0.2-0.4-0.6,0-0.8
						S263.7,266.4,264.1,266.6z"/>
				</g>
			</g>
			<linearGradient id="SVGID_51_" gradientUnits="userSpaceOnUse" x1="263.3928" y1="267.5377" x2="263.3928" y2="197.4839">
				<stop  offset="0" style="stop-color:#FCCC6B"/>
				<stop  offset="5.346197e-02" style="stop-color:#E5B86B"/>
				<stop  offset="0.185" style="stop-color:#B28D6B"/>
				<stop  offset="0.3191" style="stop-color:#87676A"/>
				<stop  offset="0.4536" style="stop-color:#63486A"/>
				<stop  offset="0.5884" style="stop-color:#47306A"/>
				<stop  offset="0.7239" style="stop-color:#34206A"/>
				<stop  offset="0.8605" style="stop-color:#28156A"/>
				<stop  offset="1" style="stop-color:#24126A"/>
			</linearGradient>
			<path class="st66" d="M262.4,197.5V267l0,0c0,0.1,0.1,0.3,0.3,0.4c0.4,0.2,1,0.2,1.4,0c0.2-0.1,0.3-0.3,0.3-0.4v-69.5H262.4z"/>
		</g>
		<g>
			<path class="st40" d="M82.9,254.1c-0.1,0-0.1,0-0.2-0.1l-14.9-8.6c-0.2-0.1-0.3-0.4-0.1-0.5c0.1-0.2,0.4-0.3,0.5-0.1l14.9,8.6
				c0.2,0.1,0.3,0.4,0.1,0.5C83.1,254,83,254.1,82.9,254.1z"/>
			<path class="st40" d="M116.9,254.1c-0.1,0-0.3-0.1-0.3-0.2c-0.1-0.2,0-0.4,0.1-0.5l14.2-8.2c0.2-0.1,0.4,0,0.5,0.1
				c0.1,0.2,0,0.4-0.1,0.5l-14.2,8.2C117.1,254.1,117,254.1,116.9,254.1z"/>
			<g>
				<g>
					<path class="st1" d="M94.5,311.9l-28.2-16.3c-2.1-1.2-1.9-3.4,0.6-4.8l27-15.6c2.5-1.4,6.2-1.6,8.4-0.3l28.2,16.3
						c2.1,1.2,1.9,3.4-0.6,4.8l-27,15.6C100.4,313,96.6,313.2,94.5,311.9z"/>
					<path class="st2" d="M140,271.4v-6.5h-16.9l-19.9-11.5c-2.7-1.5-7.3-1.3-10.4,0.4l-19.2,11.1H56.7v6.9h0c-0.1,1,0.5,2,1.8,2.8
						l35,20.2c2.7,1.5,7.3,1.3,10.4-0.4l33.5-19.4C139.3,273.9,140.1,272.6,140,271.4z"/>
					<linearGradient id="SVGID_52_" gradientUnits="userSpaceOnUse" x1="38.3289" y1="274.0355" x2="121.6065" y2="274.0355">
						<stop  offset="0" style="stop-color:#42E8E0"/>
						<stop  offset="0.1022" style="stop-color:#3CCACE"/>
						<stop  offset="0.3445" style="stop-color:#2F87A5"/>
						<stop  offset="0.564" style="stop-color:#255385"/>
						<stop  offset="0.7534" style="stop-color:#1E2D6E"/>
						<stop  offset="0.905" style="stop-color:#1A1660"/>
						<stop  offset="1" style="stop-color:#180D5B"/>
					</linearGradient>
					<path class="st67" d="M140,271.4v-6.5h-16.9l-19.9-11.5c-2.7-1.5-7.3-1.3-10.4,0.4l-19.2,11.1H56.7v6.9h0c-0.1,1,0.5,2,1.8,2.8
						l35,20.2c2.7,1.5,7.3,1.3,10.4-0.4l33.5-19.4C139.3,273.9,140.1,272.6,140,271.4z"/>
					<linearGradient id="SVGID_53_" gradientUnits="userSpaceOnUse" x1="98.3757" y1="274.0336" x2="140.0145" y2="274.0336">
						<stop  offset="0" style="stop-color:#2B237C"/>
						<stop  offset="1" style="stop-color:#180D5B"/>
					</linearGradient>
					<path class="st68" d="M103.2,253.3c-1.3-0.7-3-1.1-4.8-1v43.5c1.9,0,4-0.5,5.6-1.5l33.5-19.4c1.8-1,2.6-2.3,2.5-3.6v-6.5h-16.9
						L103.2,253.3z"/>
					<path class="st2" d="M93.6,287.8l-35-20.2c-2.7-1.5-2.3-4.2,0.7-6l33.5-19.4c3.1-1.8,7.7-2,10.4-0.4l35,20.2
						c2.7,1.5,2.3,4.2-0.7,6l-33.5,19.4C100.9,289.2,96.2,289.4,93.6,287.8z"/>
					<linearGradient id="SVGID_54_" gradientUnits="userSpaceOnUse" x1="56.7369" y1="264.8357" x2="140.0204" y2="264.8357">
						<stop  offset="0" style="stop-color:#42E8E0"/>
						<stop  offset="0.1022" style="stop-color:#3CCACE"/>
						<stop  offset="0.3445" style="stop-color:#2F87A5"/>
						<stop  offset="0.564" style="stop-color:#255385"/>
						<stop  offset="0.7534" style="stop-color:#1E2D6E"/>
						<stop  offset="0.905" style="stop-color:#1A1660"/>
						<stop  offset="1" style="stop-color:#180D5B"/>
					</linearGradient>
					<path class="st69" d="M93.6,287.8l-35-20.2c-2.7-1.5-2.3-4.2,0.7-6l33.5-19.4c3.1-1.8,7.7-2,10.4-0.4l35,20.2
						c2.7,1.5,2.3,4.2-0.7,6l-33.5,19.4C100.9,289.2,96.2,289.4,93.6,287.8z"/>
					<path class="st63" d="M94.5,283.4l-28.2-16.3c-2.1-1.2-1.9-3.4,0.6-4.8l27-15.6c2.5-1.4,6.2-1.6,8.4-0.3l28.2,16.3
						c2.1,1.2,1.9,3.4-0.6,4.8l-27,15.6C100.4,284.5,96.6,284.6,94.5,283.4z"/>
					<path class="st0" d="M66.9,264.4l27-15.6c2.5-1.4,6.2-1.6,8.4-0.3l28.2,16.3c0.5,0.3,0.9,0.7,1.1,1.1c0.6-1.1,0.3-2.4-1.1-3.2
						l-28.2-16.3c-2.1-1.2-5.9-1.1-8.4,0.3l-27,15.6c-1.9,1.1-2.5,2.6-1.7,3.8C65.4,265.4,66,264.8,66.9,264.4z"/>
					<linearGradient id="SVGID_55_" gradientUnits="userSpaceOnUse" x1="56.7369" y1="264.8369" x2="99.2429" y2="264.8369">
						<stop  offset="0" style="stop-color:#42E8E0"/>
						<stop  offset="0.1022" style="stop-color:#3CCACE"/>
						<stop  offset="0.3445" style="stop-color:#2F87A5"/>
						<stop  offset="0.564" style="stop-color:#255385"/>
						<stop  offset="0.7534" style="stop-color:#1E2D6E"/>
						<stop  offset="0.905" style="stop-color:#1A1660"/>
						<stop  offset="1" style="stop-color:#180D5B"/>
					</linearGradient>
					<path class="st70" d="M94.7,287.8l-35-20.2c-2.7-1.5-3.3-3.8,0.7-6L94,242.3c1.5-0.9,3.4-1.4,5.3-1.5c-2.2-0.1-4.6,0.4-6.4,1.5
						l-33.5,19.4c-3.1,1.8-3.4,4.5-0.7,6l35,20.2c1.4,0.8,3.2,1.1,5.1,1C97.2,288.8,95.8,288.5,94.7,287.8z"/>
					<linearGradient id="SVGID_56_" gradientUnits="userSpaceOnUse" x1="68.0643" y1="289.0695" x2="137.7723" y2="243.5066">
						<stop  offset="0" style="stop-color:#42E8E0"/>
						<stop  offset="0.1022" style="stop-color:#3CCACE"/>
						<stop  offset="0.3445" style="stop-color:#2F87A5"/>
						<stop  offset="0.564" style="stop-color:#255385"/>
						<stop  offset="0.7534" style="stop-color:#1E2D6E"/>
						<stop  offset="0.905" style="stop-color:#1A1660"/>
						<stop  offset="1" style="stop-color:#180D5B"/>
					</linearGradient>
					<path class="st71" d="M137.5,271l-33.5,19.4c-3.1,1.8-7.7,2-10.4,0.4l-35-20.2c-1.3-0.7-1.9-1.7-1.8-2.8h0v1.4h0
						c-0.1,1,0.5,2,1.8,2.8l35,20.2c2.7,1.5,7.3,1.3,10.4-0.4l33.5-19.4c1.8-1,2.6-2.3,2.5-3.6v-1.4
						C140.1,268.6,139.3,269.9,137.5,271z"/>
				</g>
				<g>
					<path class="st56" d="M131.4,269.1c0.4,0.2,0.4,0.6,0,0.8c-0.4,0.2-1,0.2-1.4,0c-0.4-0.2-0.4-0.6,0-0.8
						C130.4,268.8,131,268.8,131.4,269.1z"/>
					<path class="st56" d="M133.6,267.8c0.4,0.2,0.4,0.6,0,0.8c-0.4,0.2-1,0.2-1.4,0c-0.4-0.2-0.4-0.6,0-0.8
						C132.6,267.6,133.2,267.6,133.6,267.8z"/>
					<path class="st56" d="M135.7,266.6c0.4,0.2,0.4,0.6,0,0.8c-0.4,0.2-1,0.2-1.4,0c-0.4-0.2-0.4-0.6,0-0.8
						C134.7,266.4,135.3,266.4,135.7,266.6z"/>
				</g>
			</g>
			<linearGradient id="SVGID_57_" gradientUnits="userSpaceOnUse" x1="135.0162" y1="267.5377" x2="135.0162" y2="197.4839">
				<stop  offset="0" style="stop-color:#FCCC6B"/>
				<stop  offset="5.346197e-02" style="stop-color:#E5B86B"/>
				<stop  offset="0.185" style="stop-color:#B28D6B"/>
				<stop  offset="0.3191" style="stop-color:#87676A"/>
				<stop  offset="0.4536" style="stop-color:#63486A"/>
				<stop  offset="0.5884" style="stop-color:#47306A"/>
				<stop  offset="0.7239" style="stop-color:#34206A"/>
				<stop  offset="0.8605" style="stop-color:#28156A"/>
				<stop  offset="1" style="stop-color:#24126A"/>
			</linearGradient>
			<path class="st72" d="M134,197.5V267l0,0c0,0.1,0.1,0.3,0.3,0.4c0.4,0.2,1,0.2,1.4,0c0.2-0.1,0.3-0.3,0.3-0.4v-69.5H134z"/>
		</g>
	</g>
</g>
</svg>
